<?xml version="1.0" encoding="utf-8"?>
<!-- Generator: Adobe Illustrator 24.1.3, SVG Export Plug-In . SVG Version: 6.00 Build 0)  -->
<svg version="1.1" id="Layer_1" xmlns="http://www.w3.org/2000/svg" xmlns:xlink="http://www.w3.org/1999/xlink" x="0px" y="0px"
	 viewBox="0 0 450 330" enable-background="new 0 0 450 330" xml:space="preserve">
<g>
	<path fill="#F1F1F4" d="M106.75,155.82c0.01-0.2,0.1-0.29,0.28-0.28l5.24,0.16c0.52,0.02,0.96,0.1,1.32,0.24
		c0.36,0.14,0.65,0.34,0.87,0.59c0.22,0.25,0.37,0.55,0.46,0.9c0.09,0.35,0.13,0.74,0.12,1.17l-0.04,1.47
		c-0.01,0.43-0.08,0.82-0.19,1.16c-0.11,0.35-0.28,0.64-0.52,0.88c-0.23,0.24-0.53,0.42-0.9,0.54c-0.37,0.12-0.81,0.17-1.33,0.16
		l-2.82-0.09l-0.58-1.68l-0.08,0l-0.05,1.66l-1.98-0.06L106.75,155.82z M108.58,160.86l3.35,0.1c0.38,0.01,0.65-0.06,0.81-0.23
		c0.17-0.16,0.25-0.46,0.27-0.89l0.04-1.19c0.01-0.44-0.06-0.75-0.21-0.91c-0.15-0.16-0.42-0.25-0.8-0.26l-3.2-0.1
		c-0.04,0-0.08,0.01-0.11,0.04c-0.03,0.03-0.04,0.06-0.04,0.1L108.58,160.86z"/>
	<path fill="#F1F1F4" d="M117.87,158.87l-0.07,0l-0.06,2.13c0,0.09,0.04,0.14,0.13,0.14l5.89,0.18l-0.05,1.85l-7.72-0.24
		c-0.19-0.01-0.28-0.11-0.27-0.3l0.19-6.53c0.01-0.2,0.1-0.29,0.29-0.28l7.5,0.23c0.19,0.01,0.29,0.11,0.28,0.3l-0.06,1.85
		l-1.85,0.64l-0.08,0l0.03-0.95c0-0.07-0.03-0.11-0.09-0.11l-3.96-0.12c-0.05,0-0.09,0.01-0.1,0.04c-0.02,0.03-0.03,0.06-0.03,0.09
		l-0.03,0.89l3.26,0.1l-0.04,1.45l-2.73-0.08L117.87,158.87z"/>
	<path fill="#F1F1F4" d="M130.96,158.74l-0.08,0l0.02-0.78c0-0.08-0.03-0.12-0.11-0.12l-3.68-0.11c-0.13,0-0.23,0.02-0.28,0.08
		c-0.05,0.06-0.08,0.14-0.08,0.25l-0.01,0.18c0,0.14,0.02,0.23,0.06,0.27c0.04,0.04,0.13,0.07,0.26,0.1l4.32,0.75
		c0.27,0.05,0.51,0.12,0.7,0.2c0.19,0.09,0.34,0.2,0.46,0.34c0.12,0.14,0.2,0.3,0.24,0.5c0.05,0.2,0.06,0.43,0.06,0.7l-0.02,0.57
		c-0.01,0.29-0.05,0.55-0.13,0.77c-0.08,0.22-0.2,0.41-0.36,0.56c-0.16,0.15-0.38,0.26-0.64,0.33c-0.26,0.07-0.59,0.1-0.97,0.09
		l-6.22-0.19l0.05-1.85l5.57,0.17c0.17,0,0.28-0.02,0.33-0.08c0.06-0.06,0.09-0.17,0.09-0.32l0.01-0.2c0-0.12-0.01-0.21-0.05-0.26
		c-0.04-0.05-0.12-0.08-0.24-0.1l-4.17-0.67c-0.28-0.05-0.52-0.11-0.72-0.2c-0.2-0.08-0.36-0.19-0.48-0.33
		c-0.12-0.13-0.21-0.3-0.26-0.49c-0.05-0.19-0.07-0.42-0.07-0.68l0.01-0.5c0.02-0.51,0.16-0.91,0.44-1.19
		c0.28-0.28,0.73-0.4,1.36-0.38l6.2,0.19c0.2,0.01,0.29,0.11,0.29,0.32l-0.04,1.47L130.96,158.74z"/>
	<path fill="#F1F1F4" d="M133.58,163.48l0.21-7.12l1.98,0.06l-0.21,7.12L133.58,163.48z"/>
	<path fill="#F1F1F4" d="M142.89,160.71c0-0.1,0-0.21-0.01-0.33c-0.01-0.11-0.01-0.21-0.02-0.3l0-0.09l1.96,0.06l-0.1,3.49
		c-0.01,0.18-0.09,0.27-0.25,0.27l-5.26-0.16c-0.52-0.02-0.96-0.1-1.32-0.24c-0.36-0.14-0.65-0.34-0.87-0.59
		c-0.22-0.25-0.37-0.55-0.46-0.9c-0.09-0.35-0.13-0.74-0.12-1.17l0.04-1.47c0.01-0.43,0.08-0.82,0.19-1.16
		c0.11-0.35,0.28-0.64,0.52-0.87c0.23-0.24,0.53-0.42,0.9-0.54c0.37-0.12,0.81-0.18,1.33-0.16l5.23,0.16
		c0.19,0.01,0.28,0.11,0.27,0.3l-0.05,1.54l-1.85,0.63l-0.08,0l0.02-0.68c0-0.07-0.03-0.1-0.08-0.1l-3.34-0.1
		c-0.19-0.01-0.35,0.01-0.49,0.04c-0.13,0.03-0.24,0.09-0.33,0.18c-0.09,0.09-0.15,0.2-0.19,0.35c-0.04,0.15-0.07,0.33-0.07,0.54
		l-0.04,1.25c-0.01,0.43,0.06,0.73,0.21,0.91c0.16,0.17,0.42,0.27,0.8,0.28l3.31,0.1c0.07,0,0.11-0.04,0.11-0.11L142.89,160.71z"/>
	<path fill="#F1F1F4" d="M148.99,156.83c0.15,0,0.25,0.03,0.31,0.08c0.06,0.05,0.11,0.12,0.16,0.22l2.5,5.2
		c0.04,0.08,0.1,0.12,0.18,0.12l0.11,0c0.1,0,0.16-0.05,0.16-0.15l0.16-5.36l1.79,0.06l-0.2,6.83c-0.01,0.19-0.1,0.28-0.28,0.27
		l-2.84-0.09c-0.13,0-0.23-0.03-0.3-0.07c-0.07-0.04-0.13-0.12-0.18-0.23l-2.59-5.19c-0.04-0.08-0.1-0.12-0.18-0.12l-0.1,0
		c-0.1,0-0.15,0.05-0.16,0.15l-0.16,5.35l-1.79-0.06l0.2-6.82c0.01-0.2,0.1-0.29,0.28-0.28L148.99,156.83z"/>
</g>
<ellipse fill="#E0F3FF" cx="201.09" cy="155.37" rx="121.03" ry="123.36"/>
<g>
	
		<linearGradient id="SVGID_1_" gradientUnits="userSpaceOnUse" x1="97.9577" y1="238.9281" x2="97.9577" y2="182.4406" gradientTransform="matrix(0.906 -0.4233 0.4233 0.906 -67.286 18.7046)">
		<stop  offset="0" style="stop-color:#DBCCFF"/>
		<stop  offset="1" style="stop-color:#D1BBFF"/>
	</linearGradient>
	<path fill="url(#SVGID_1_)" d="M112.13,147.47c-2.98-5.22-8.24-7.37-8.24-7.37l-1.84,0.87l4.13,7.64
		c-0.55,2.94-2.53,4.55-2.53,4.55l-0.01-0.01c0,0-2.48,0.51-5.05-0.94l-3.1-8.14l-1.84,0.87c0,0-1.76,5.49,0.26,11.17
		c0,0,0.78,1.84,0.92,2c0.73,0.87,2.62,1.86,6.29,1.63l12.65,24.6c-1.05,1.84-1.23,4.16-0.28,6.23c1.55,3.38,5.48,4.83,8.79,3.26
		c3.31-1.58,4.74-5.59,3.19-8.96c-0.95-2.07-2.81-3.42-4.87-3.78l-10.39-25.66c2.47-2.66,2.99-4.75,2.81-5.96
		C113.01,149.22,112.13,147.47,112.13,147.47z M122.53,189.9l-3.35,1.6l-3.03-2.16l0.32-3.76l3.35-1.6l3.03,2.16L122.53,189.9z"/>
	
		<linearGradient id="SVGID_2_" gradientUnits="userSpaceOnUse" x1="97.9496" y1="241.1307" x2="97.9496" y2="184.6431" gradientTransform="matrix(0.906 -0.4233 0.4233 0.906 -67.286 18.7046)">
		<stop  offset="0" style="stop-color:#B5A6E7"/>
		<stop  offset="1" style="stop-color:#7760BF"/>
	</linearGradient>
	<path fill="url(#SVGID_2_)" d="M113.05,149.48c-2.98-5.22-8.24-7.37-8.24-7.37l-1.84,0.87l4.13,7.64
		c-0.55,2.94-2.53,4.55-2.53,4.55l-0.01-0.01c0,0-2.48,0.51-5.05-0.94l-3.1-8.14l-1.84,0.87c0,0-1.76,5.49,0.26,11.17
		c0,0,2.86,3.91,7.21,3.63l12.65,24.6c-1.05,1.84-1.23,4.16-0.28,6.23c1.55,3.38,5.48,4.83,8.79,3.26c3.31-1.58,4.74-5.59,3.19-8.96
		c-0.95-2.07-2.81-3.42-4.87-3.78l-10.39-25.66C114.15,154.22,113.05,149.48,113.05,149.48z M123.45,191.9l-3.35,1.6l-3.03-2.16
		l0.32-3.76l3.35-1.6l3.03,2.16L123.45,191.9z"/>
	<polygon fill="#E5E2FF" points="93.67,144.95 94.59,146.95 96.42,146.08 95.51,144.08 	"/>
	<polygon fill="#E5E2FF" points="102.05,140.98 102.97,142.98 104.81,142.1 103.89,140.1 	"/>
	<polygon fill="#E5E2FF" points="119.18,191.49 120.1,193.5 123.45,191.9 122.53,189.9 	"/>
	<g>
		
			<linearGradient id="SVGID_3_" gradientUnits="userSpaceOnUse" x1="97.8825" y1="227.0952" x2="97.8825" y2="203.2943" gradientTransform="matrix(0.906 -0.4233 0.4233 0.906 -67.286 18.7046)">
			<stop  offset="0" style="stop-color:#B5A6E7"/>
			<stop  offset="1" style="stop-color:#7760BF"/>
		</linearGradient>
		<path fill="url(#SVGID_3_)" d="M104.76,163.59l10.22,20.01c2.68,0.13,4.12-1.96,4.12-1.96l-8.32-20.92
			C107.05,160.58,104.76,163.59,104.76,163.59z M118.32,181.8c-0.3,0.26-0.75,0.61-1.32,0.88c-0.45,0.22-0.93,0.36-1.41,0.43
			l-10.23-19.6c0.5-0.45,1.36-1.12,2.46-1.65c0.83-0.39,1.67-0.64,2.53-0.76L118.32,181.8z"/>
		<path fill="#E5E2FF" d="M118.32,181.8l0.79-0.16c0,0-1.17,2.12-4.12,1.96l0.6-0.49C115.58,183.11,117.04,182.94,118.32,181.8z"/>
		
			<linearGradient id="SVGID_4_" gradientUnits="userSpaceOnUse" x1="94.5464" y1="203.7818" x2="101.2186" y2="203.7818" gradientTransform="matrix(0.906 -0.4233 0.4233 0.906 -67.286 18.7046)">
			<stop  offset="0" style="stop-color:#8B8BE0"/>
			<stop  offset="1" style="stop-color:#A177B7"/>
		</linearGradient>
		<path opacity="0.62" fill="url(#SVGID_4_)" d="M104.76,163.59l0.59-0.08c0,0,1.75-1.85,4.99-2.41l0.45-0.38
			c0,0-1.3-0.23-3.33,0.73C105.43,162.42,104.76,163.59,104.76,163.59z"/>
	</g>
	
		<linearGradient id="SVGID_5_" gradientUnits="userSpaceOnUse" x1="97.903" y1="205.3748" x2="97.903" y2="201.2276" gradientTransform="matrix(0.906 -0.4233 0.4233 0.906 -67.286 18.7046)">
		<stop  offset="0" style="stop-color:#FFFFFF"/>
		<stop  offset="1" style="stop-color:#A177B7"/>
	</linearGradient>
	<path opacity="0.62" fill="url(#SVGID_5_)" d="M102.06,161.76c0,0,4.91-0.89,9.1-4.32l1.33,3.28c0,0-1.51-1.52-4.81-0.15
		c-3.87,1.61-3.66,4.78-3.66,4.78L102.06,161.76z"/>
	
		<linearGradient id="SVGID_6_" gradientUnits="userSpaceOnUse" x1="101.3159" y1="229.5073" x2="101.3159" y2="203.2629" gradientTransform="matrix(0.906 -0.4233 0.4233 0.906 -67.286 18.7046)">
		<stop  offset="0" style="stop-color:#000000"/>
		<stop  offset="1" style="stop-color:#FFFFFF"/>
	</linearGradient>
	<path opacity="0.5" fill="url(#SVGID_6_)" d="M112.49,160.72c-0.94-0.69-2.02-0.71-2.02-0.71l9.89,24.35l1.19-1.26L112.49,160.72z"
		/>
	<path fill="#FFFFFF" d="M112.49,160.72c0,0-1.04,3.25,1.94,4.8L112.49,160.72z"/>
</g>
<linearGradient id="SVGID_7_" gradientUnits="userSpaceOnUse" x1="209.8775" y1="318.0839" x2="209.8775" y2="247.0912">
	<stop  offset="0" style="stop-color:#6456C0"/>
	<stop  offset="1" style="stop-color:#5F2C95"/>
</linearGradient>
<path fill="url(#SVGID_7_)" d="M261.35,318.08h-36.7c-3.84-21.74-12.77-50.03-12.77-50.03c-2.17-1.31-6.41,0.3-6.41,0.3
	l-13.41,49.73h-33.52c-1.78-30.69,14.69-65.52,14.69-65.52l-0.01-0.01c-0.05-0.12-0.58-1.19-0.44-1.9c0.05-0.31,0.62-0.9,1.25-1.48
	c0.91-0.84,1.98-1.69,1.98-1.69l62.54-0.4c0,0,0.63,0.33,1.44,0.82h0.01c1.37,0.84,3.22,2.15,3.22,3.1c0,1.31-0.51,2.16-0.63,2.36
	l-0.03,0.04C255.97,279.21,261.35,318.08,261.35,318.08z"/>
<radialGradient id="SVGID_8_" cx="408.9684" cy="357.9684" r="27.0277" gradientTransform="matrix(0.5045 0.1187 -0.3007 1.3287 77.2903 -231.5895)" gradientUnits="userSpaceOnUse">
	<stop  offset="0" style="stop-color:#4B474B"/>
	<stop  offset="1" style="stop-color:#000000"/>
</radialGradient>
<path opacity="0.5" fill="url(#SVGID_8_)" d="M167.83,328.46c-7.53-1.77-10-19.28-5.51-39.12c4.49-19.83,14.23-34.47,21.76-32.7
	c7.53,1.77,10,19.28,5.51,39.12C185.11,315.59,175.37,330.23,167.83,328.46"/>
<radialGradient id="SVGID_9_" cx="466.8902" cy="385.8173" r="27.0272" gradientTransform="matrix(0.4986 -0.1424 0.3609 1.313 -131.1105 -147.8681)" gradientUnits="userSpaceOnUse">
	<stop  offset="0" style="stop-color:#4B474B"/>
	<stop  offset="1" style="stop-color:#000000"/>
</radialGradient>
<path opacity="0.5" fill="url(#SVGID_9_)" d="M254.39,288.35c5.39,19.6,3.72,37.21-3.72,39.34c-7.44,2.13-17.84-12.04-23.23-31.64
	c-5.39-19.6-3.72-37.21,3.72-39.34C238.61,254.58,249.01,268.75,254.39,288.35z"/>
<g>
	<linearGradient id="SVGID_10_" gradientUnits="userSpaceOnUse" x1="187.3361" y1="293.161" x2="205.6031" y2="293.161">
		<stop  offset="0" style="stop-color:#9E8CEF"/>
		<stop  offset="1" style="stop-color:#CAAFEE"/>
	</linearGradient>
	<path fill="url(#SVGID_10_)" d="M187.72,318.12l-0.39-0.07c4.27-25.62,15.1-47.11,15.21-47.33l0.04-0.06l2.76-2.46l0.26,0.3
		l-2.73,2.43C202.39,271.91,191.9,293.03,187.72,318.12z"/>
</g>
<g>
	
		<linearGradient id="SVGID_11_" gradientUnits="userSpaceOnUse" x1="267.6062" y1="293.1617" x2="285.8746" y2="293.1617" gradientTransform="matrix(-1 0 0 1 497.6286 0)">
		<stop  offset="0" style="stop-color:#9E8CEF"/>
		<stop  offset="1" style="stop-color:#CAAFEE"/>
	</linearGradient>
	<path fill="url(#SVGID_11_)" d="M229.64,318.12c-4.18-25.11-14.96-46.43-15.44-47.38l-2.44-2.23l0.26-0.3l2.51,2.31
		c0.11,0.22,11.23,21.91,15.5,47.53L229.64,318.12z"/>
</g>
<linearGradient id="SVGID_12_" gradientUnits="userSpaceOnUse" x1="207.4263" y1="318.0839" x2="207.4263" y2="247.0912">
	<stop  offset="0" style="stop-color:#CCCCFF"/>
	<stop  offset="1" style="stop-color:#755CBB"/>
</linearGradient>
<path opacity="0.76" fill="url(#SVGID_12_)" d="M243.22,251.01c0,1.31-0.51,2.16-0.63,2.36l-0.03,0.04
	c-13.02,3-22.93,15.39-22.93,15.39c7.1,13.88,18.93,49.28,18.93,49.28h-13.9c-3.84-21.74-12.77-50.03-12.77-50.03
	c-2.17-1.31-6.41,0.3-6.41,0.3l-13.41,49.73h-8.68c3.11-20.83,12.28-46.27,12.28-46.27c-9.02-10.7-22.43-19.25-22.43-19.25
	l-0.01-0.01l-1.59-1.02l1.16-0.88c5.8,5.67,24.51,13.08,25.08,13.31l-23.84-14.79c0.91-0.84,1.98-1.69,1.98-1.69l62.54-0.4
	c0,0,0.63,0.33,1.44,0.82l-17.08,9.58L243.22,251.01z"/>
<linearGradient id="SVGID_13_" gradientUnits="userSpaceOnUse" x1="215.5346" y1="282.5876" x2="215.5346" y2="263.2245">
	<stop  offset="0" style="stop-color:#CCCCFF"/>
	<stop  offset="1" style="stop-color:#755CBB"/>
</linearGradient>
<polygon opacity="0.76" fill="url(#SVGID_13_)" points="211.88,268.05 219.18,263.22 217.45,268.05 216.18,282.59 "/>
<linearGradient id="SVGID_14_" gradientUnits="userSpaceOnUse" x1="193.532" y1="275.4673" x2="193.532" y2="256.4968">
	<stop  offset="0" style="stop-color:#CCCCFF"/>
	<stop  offset="1" style="stop-color:#755CBB"/>
</linearGradient>
<polygon opacity="0.76" fill="url(#SVGID_14_)" points="205.47,268.35 197.87,263.97 181.59,256.5 202.32,270.46 203.56,275.47 "/>
<path fill="#FE9083" d="M226.4,118.86c0.05,0.34,0.09,0.53,0.09,0.53c-0.38,1.62-0.82,3.13-1.3,4.5c-1.53,4.48-3.44,7.66-4.86,9.64
	c-1.24,1.71-2.12,2.53-2.12,2.53c-11.39-3.64-17-15-19.16-20.65c-0.02-0.02-0.02-0.06-0.03-0.09c-0.41-1.07-0.69-1.93-0.86-2.48
	c0,0,0,0,0-0.01c-0.13-0.45-0.2-0.69-0.2-0.69c0.05-0.1,0.09-0.2,0.14-0.29l0.02-0.04c0.19-0.4,0.37-0.8,0.55-1.19
	c1.49-3.33,2.48-6.44,3.12-8.89c0.55-2.08,0.85-3.69,0.99-4.54c0.07-0.44,0.1-0.68,0.1-0.68l5.31,2.86l18.29,9.87
	c-0.27,1.71-0.38,3.32-0.39,4.73c-0.02,0.99,0.02,1.89,0.07,2.64c0.05,0.92,0.15,1.66,0.22,2.13v0.01
	C226.38,118.79,226.39,118.82,226.4,118.86z"/>
<linearGradient id="SVGID_15_" gradientUnits="userSpaceOnUse" x1="212.409" y1="140.1845" x2="212.409" y2="111.8464">
	<stop  offset="0" style="stop-color:#D5CDF8"/>
	<stop  offset="1" style="stop-color:#F3EDFB"/>
</linearGradient>
<path fill="url(#SVGID_15_)" d="M221.32,137.31c-1.05,1.07-2.3,2.02-3.78,2.82c-0.03,0.02-0.06,0.04-0.09,0.06
	c0,0-0.04-0.02-0.11-0.06l-0.01-0.01c-0.4-0.25-1.76-1.1-3.58-2.5c-4.78-3.67-12.76-11.09-15.04-21.08
	c-0.01-0.02-0.01-0.02-0.02-0.04c-0.27-1.19-0.45-2.4-0.55-3.65c0,0,0,0,0-0.01c-0.02-0.33-0.05-0.65-0.05-0.99
	c0,0,1.58,3.8,4.33,7.89c3.23,4.82,8.08,10.08,13.87,10.11c5.01,0.03,7.58-3.46,8.88-6.68c0.55-1.37,0.88-2.68,1.05-3.66
	c0.01-0.01,0.01-0.02,0.01-0.02c0.05-0.29,0.09-0.54,0.13-0.76v-0.01c0.02-0.11,0.03-0.21,0.04-0.29c0.05-0.36,0.06-0.57,0.06-0.57
	S228.4,130.09,221.32,137.31z"/>
<linearGradient id="SVGID_16_" gradientUnits="userSpaceOnUse" x1="198.0967" y1="125.9876" x2="226.7213" y2="125.9876">
	<stop  offset="0" style="stop-color:#CCCCFF"/>
	<stop  offset="1" style="stop-color:#755CBB"/>
</linearGradient>
<path opacity="0.5" fill="url(#SVGID_16_)" d="M221.32,137.31c-1.05,1.07-2.3,2.02-3.78,2.82h-0.09l-0.11-0.01l-0.01-0.01
	c-0.4-0.25-1.76-1.1-3.58-2.5c-4.78-3.67-12.76-11.09-15.04-21.08c-0.01-0.02-0.01-0.02-0.02-0.04c-0.27-1.19-0.45-2.4-0.55-3.65
	c0,0,0,0,0-0.01c-0.02-0.33-0.05-0.65-0.05-0.99c0,0,1.58,3.8,4.33,7.89c0,0,3.15,8.83,9.98,13.21c3.42,2.19,6.01,1.87,7.92,0.58
	c1.9-1.28,3.14-3.52,3.86-5.2c0.73-1.7,0.96-3.28,1-4.44c0.01-0.26,0.01-0.5,0-0.72c0.55-1.37,0.88-2.68,1.05-3.66
	c0.01-0.01,0.01-0.02,0.01-0.02c0.05-0.29,0.09-0.54,0.13-0.76v-0.01c0.02-0.11,0.03-0.21,0.04-0.29c0.05-0.36,0.06-0.57,0.06-0.57
	S228.4,130.09,221.32,137.31z"/>
<linearGradient id="SVGID_17_" gradientUnits="userSpaceOnUse" x1="204.224" y1="253.4093" x2="204.224" y2="110.6129">
	<stop  offset="0" style="stop-color:#9E8CEF"/>
	<stop  offset="1" style="stop-color:#CAAFEE"/>
</linearGradient>
<path fill="url(#SVGID_17_)" d="M265.17,209.48c-0.09,0.04-0.12,0.06-0.12,0.06c-0.64,0.08-2.63-0.37-5.24-2.67l-0.01-0.01
	c0-0.01-0.01-0.02-0.02-0.02c-0.01-0.01-0.02-0.02-0.03-0.03c-2.19-1.95-4.81-5.2-7.42-10.54c-5.23-10.66-6.73-17.77-6.97-19.01
	l-0.03-0.19l-3.05,4.93c-2.07,6.34-5.99,32.59-5.92,33.72c0.07,1.13,3.47,6.64,3.4,7.31c0,0,0,0.01-0.01,0.02
	c-0.09,0.68-1.62,2.19-2.06,3.83c-0.3,1.09,1.78,4.53,3.24,7.1v0.01c0.76,1.34,1.34,2.44,1.34,2.85c0,1.2-3.7,7.08-3.7,7.08v3.17
	l-0.05,0.06l-0.17,0.16l-0.14,0.12c-1.41,1.13-7.36,4.83-25.97,5.85c-22.06,1.2-36.75-6.03-36.75-6.03l1.11-3.1
	c0,0-1.03-0.9-1.11-1.35c-0.07-0.45,0.81-1.51,0.81-1.51s-2.22-1.2-2.22-2.71c0-1.5,4.44-6.18,4.29-10.18
	c-0.15-3.99-3.55-7.54-4-9.8c-0.45-2.26,5.77-7.84,5.77-7.84c-5.32-17.19-6.36-40.26-6.36-40.26l-1.03-1.21
	c0,0-6.36,14.78-12.13,22.01c-0.69,0.86-1.41,1.71-2.16,2.53c-1.61,1.77-3.32,3.44-4.97,4.89c-4,3.55-7.63,5.88-8.55,5.7
	c-1.48-0.3-7.4-12.22-7.13-24.43c0.12-5.81,3.56-12.31,7.13-17.52c0.38-0.56,0.77-1.11,1.16-1.64c2.53-3.51,4.96-6.26,6.12-7.52
	c0.45-0.49,0.71-0.76,0.71-0.76s-0.81-2.67-1.37-4.98c-0.01-0.06-0.02-0.11-0.04-0.17c0-0.02-0.01-0.06-0.02-0.08
	c-0.01-0.04-0.02-0.06-0.02-0.06c-0.33-1.42-0.53-2.66-0.34-2.96c0.49-0.8,3.36-1.71,3.85-2.31c0.49-0.6,2.56-10.76,4.14-11.87
	c1.51-1.06,4.18-1.83,13.05-5.39c0.44-0.18,0.88-0.35,1.35-0.54c9.95-4.02,19.72-8.9,19.72-8.9l3.75-4.7h1.67l-0.55,1.19l-0.02,0.04
	c0.27,1.21,0.57,2.37,0.91,3.48c0.01,0.03,0.02,0.06,0.03,0.09c5.15,16.57,18.41,21.91,18.41,21.91c9.21-6.93,9.03-17.94,9.03-17.94
	v-1.51l1.73,0.53l1.18,2.86c0,0,2,3.17,9.92,6.72c1.37,0.61,2.83,1.38,4.35,2.27c7.25,4.19,15.3,10.68,15.92,12.06
	c0.06,0.14,0.13,0.37,0.21,0.68v0.01c0.85,3.41,2.6,16.16,4.22,20.71c1.01,2.84,2.62,4.41,3.79,5.22c0.01,0.01,0.01,0.01,0.02,0.01
	c0.87,0.61,1.51,0.8,1.51,0.8c0.12,0.7,0.24,1.39,0.35,2.08C273.08,193.64,266.62,208.45,265.17,209.48z"/>
<linearGradient id="SVGID_18_" gradientUnits="userSpaceOnUse" x1="146.0849" y1="164.4283" x2="180.2025" y2="164.4283">
	<stop  offset="0" style="stop-color:#CCCCFF"/>
	<stop  offset="1" style="stop-color:#755CBB"/>
</linearGradient>
<path opacity="0.5" fill="url(#SVGID_18_)" d="M180.2,168.29l-6.43,2.2l-1.03-1.21c0,0-6.36,14.78-12.13,22.01
	c-0.69,0.86-1.41,1.71-2.16,2.53c-1.61,1.77-3.32,3.44-4.97,4.89l-4.9-21.54l-2.49-16.35c2.53-3.51,4.96-6.26,6.12-7.52
	c0.45-0.49,0.71-0.76,0.71-0.76s-0.81-2.67-1.37-4.98c-0.01-0.06-0.02-0.11-0.04-0.17c0-0.02-0.01-0.06-0.02-0.08
	c-0.01-0.04-0.02-0.06-0.02-0.06c-0.33-1.42-0.53-2.66-0.34-2.96c0.49-0.8,3.36-1.71,3.85-2.31c0.49-0.6,2.56-10.76,4.14-11.87
	c0,0-1.03,9.75,4.44,22.12l2.66,3.82l7.79,6.38C174.02,162.45,176.98,166.45,180.2,168.29z"/>
<linearGradient id="SVGID_19_" gradientUnits="userSpaceOnUse" x1="145.0296" y1="204.4209" x2="145.0296" y2="137.646">
	<stop  offset="0" style="stop-color:#9E8CEF"/>
	<stop  offset="1" style="stop-color:#DAC7F3"/>
</linearGradient>
<path fill="url(#SVGID_19_)" d="M161.59,185.93c-1.38,10.45-16.66,18.49-16.66,18.49c-3.4,0-7.21-6.03-10.66-13.47
	c-3.45-7.44-3.66-28.82-3.84-30.14c-0.19-1.32-2.11-3.96-2.23-5.09c-0.11-1.13,3.11-3.47,3.11-3.47l-0.02-0.06l-0.02-0.06
	c-0.34-0.73-2.23-4.86-2.09-5.62c0.15-0.83,3.76-2.63,3.76-2.63l0.23,4.07c0,0,8.42-1.62,11.27-8.27l0.5-2.04l1.41,0.95v8.75
	c0,0,0.29,1.36,0.73,1.36c0.45,0,3.72-1.67,4.41-1.44c0.69,0.23,1.37,4.91,2.3,5.51c0.91,0.6,3.36,2.34,3.72,3.17
	c0.16,0.37,0.18,1.72,0.2,3.3c0.02,1.94,0.04,4.23,0.32,5.52C158.54,167.1,162.97,175.47,161.59,185.93z"/>
<linearGradient id="SVGID_20_" gradientUnits="userSpaceOnUse" x1="257.6816" y1="185.1755" x2="301.6406" y2="185.1755">
	<stop  offset="0" style="stop-color:#A999F1"/>
	<stop  offset="1" style="stop-color:#DAC7F3"/>
</linearGradient>
<path fill="url(#SVGID_20_)" d="M301.33,176.97c-0.69,1.11-4.14,3.42-5.03,4.33c-0.89,0.9,0,3.88,0,3.88
	c-14.5,15.69-29.61,23.54-31.14,24.3c-0.09,0.04-0.12,0.06-0.12,0.06c-9.1-6.24-8.32-16.51-5.3-25.17
	c2.89-8.31,7.84-15.13,8.06-15.42l0.01-0.01c0,0,0,0,0.01-0.01c0.16-0.06,2.76-1.16,4.62-1.31c0.62-0.05,1.18,0.2,1.71,0.54
	c1.11,0.7,2.05,1.81,2.95,1.34c1.34-0.68,4.32-7.87,6.34-8.07c1.41-0.14,3.37,1.33,4.68,2.16c0.57,0.37,1.01,0.61,1.23,0.55
	c0.74-0.2,3.26-3.27,3.46-3.35c0.2-0.09,1.34,0.77,1.34,0.77l-0.8,1.02c1.23,7.24,5.28,12.11,5.28,12.11l2.71-4.04
	C301.33,170.67,302.03,175.87,301.33,176.97z"/>
<path fill="#CB4D7A" d="M226.44,118.55c-0.02,0.1-0.03,0.21-0.04,0.31c-0.04,0.21-0.09,0.42-0.15,0.64c0,0,0,0.01-0.01,0.02
	c-0.93,3.51-4.68,7.1-9.42,5.37c-5.18-1.89-15.03-23.16-15.03-23.16l0.99-4.54l23.38,19.42l0.26,1.84L226.44,118.55z"/>
<g>
	<path fill="#EE8183" d="M148.57,114.65c0,0-1.43-8.04-0.79-13.97c0.64-5.93-0.17-12.67-0.17-12.67s-1.41-0.6-2.45,0
		c-1.04,0.6-3.45,6.73-2.37,11.66c1.08,4.93,0.25,16.74,0.25,16.74h-1.63l-3.55-4.98l-1.73-0.5c0,0-9.94,9.55-9.79,15.23l1.3,5.05
		l12.24-0.43l7.99-9.3L148.57,114.65z"/>
	<linearGradient id="SVGID_21_" gradientUnits="userSpaceOnUse" x1="130.7305" y1="128.5409" x2="130.7305" y2="110.9344">
		<stop  offset="0.016" style="stop-color:#FFC2A9"/>
		<stop  offset="1" style="stop-color:#FF9595"/>
	</linearGradient>
	<path fill="url(#SVGID_21_)" d="M136.15,110.93c0,0,0.26,6.33,1.65,11.76c0,0-0.23,2.22-2.79,2.37l-0.63-0.72
		c0,0-0.44,2.53-2.7,2.71l-2.14-2.19l0.55,1.81c0,0-0.78,1.92-2.81,1.85c0,0-3.4-2.71-3.62-6.26l3.36-2.9v-2.22l4-2.86l0.07-1.62
		C131.09,112.67,133.44,110.9,136.15,110.93z"/>
	<linearGradient id="SVGID_22_" gradientUnits="userSpaceOnUse" x1="141.6075" y1="128.1241" x2="141.6075" y2="98.9796">
		<stop  offset="0" style="stop-color:#FFEADB"/>
		<stop  offset="0.9944" style="stop-color:#C27CB6"/>
	</linearGradient>
	<path opacity="0.6" fill="url(#SVGID_22_)" d="M147.93,98.98c0,0-0.6,1.55-1.45,2.15c-0.85,0.6-3.32,1.06-3.32,1.06l-0.11,14.21
		h-1.63l-3.55-4.98c0,0,1.8,2.84,1.91,4.98l-1.41,0.7l-1.22-4.26l-0.58,3.07l0.57,3.81c0,0,2.11-1.85,5.91-1.92l0.57,1.06
		c0,0-6.89,5.82-8.48,9.25c0,0,3.4-4.41,11.17-9.27l0.74-2.34l0.98-5.58C148.05,110.93,147.12,102.89,147.93,98.98z"/>
	<linearGradient id="SVGID_23_" gradientUnits="userSpaceOnUse" x1="140.6798" y1="147.9515" x2="140.6798" y2="103.021">
		<stop  offset="0.016" style="stop-color:#FFC2A9"/>
		<stop  offset="1" style="stop-color:#FF9595"/>
	</linearGradient>
	<path fill="url(#SVGID_23_)" d="M153.7,123.75c-0.64,1.96-7.35,10.1-8.09,11.87c-0.74,1.76-1.19,4.07-1.19,4.07
		c-3.29,7.27-11.27,8.27-11.27,8.27l-0.37-6.56c0,0-4.29-2.51-5.01-3.89l-0.01-0.02l-0.09-0.23c-0.22-1.28-0.03-6.03-0.03-6.03
		l7.5-3.1c3.26-4.3,11.17-9.27,11.17-9.27l0.37-2.25c-5.68-2.85-4.73-11.47-3.77-12.53c0.96-1.05,2.73-1.05,2.73-1.05
		s2.08,6.93,3.4,10.18C150.4,116.44,154.34,121.79,153.7,123.75z"/>
	<path fill="#E28183" d="M131.09,112.67c0,0,0.84,7.92,3.29,11.69c0,0-3.12-3.95-3.37-10.06L131.09,112.67z"/>
	<path fill="#E28183" d="M127.02,117.15c0,0,0.82,6.37,4.66,9.91c0,0-3.41-1.73-4.66-7.69V117.15z"/>
	<linearGradient id="SVGID_24_" gradientUnits="userSpaceOnUse" x1="132.797" y1="140.94" x2="146.6564" y2="140.94">
		<stop  offset="0.016" style="stop-color:#D1A1D6"/>
		<stop  offset="0.9944" style="stop-color:#BD89C4"/>
	</linearGradient>
	<path opacity="0.91" fill="url(#SVGID_24_)" d="M146.66,133.93c0,0-8.46,8.37-13.86,7.47l0.37,6.56c0,0,8.88-0.79,11.76-10.31
		C144.93,137.64,145.96,134.91,146.66,133.93z"/>
</g>
<g>
	<linearGradient id="SVGID_25_" gradientUnits="userSpaceOnUse" x1="302.5467" y1="175.3188" x2="302.5467" y2="115.2355">
		<stop  offset="0.016" style="stop-color:#FFC2A9"/>
		<stop  offset="1" style="stop-color:#FF9595"/>
	</linearGradient>
	<path fill="url(#SVGID_25_)" d="M325.47,145.31c0,0-7.77,14.48-16.86,18.92h-3.11l-7.17,11.09c0,0-4.64-2.97-4.98-12.72
		c0,0,1.62-1.73,2.02-3.68c0,0-2.56-2.05-3.26-3.56c-0.69-1.51-0.94-6.03-1.43-7.89c-0.49-1.86-4.68-5.73-5.62-6.23
		c-0.94-0.5-5.18-0.76-5.18-0.76s-0.59-1.56,0-2.31c0.59-0.76,7.2-3.37,10.8-0.86c0,0,0.25,1.91,0.64,2.92
		c0.4,1,3.55,4.57,4.04,4.57s2.62-1.81,3.55-3.21c0.9-1.35,5.67-11.83,6.82-15.37c0.01-0.04,0.02-0.07,0.03-0.1
		c0.02-0.06,0.04-0.11,0.05-0.16c0.02-0.04,0.02-0.07,0.03-0.1c0.01-0.02,0.02-0.02,0.02-0.04c0.89-3.06,6.07-8.94,8.83-10.55
		c0,0,1.18-0.3,1.82,1.2c0,0-2.22,6.44-4.54,10.26c-0.39,0.64-0.81,1.4-1.25,2.21c0,0,0,0-0.01,0c-1.98,3.7-4.2,8.55-4.52,9.26
		l-0.04,0.09l1.23,0.64l3.33-3.22l3.42-3.3l7.85,8.44l-0.77,1l-2.45,3.21l1.24,0.23l2.89-3.25L325.47,145.31z"/>
	<linearGradient id="SVGID_26_" gradientUnits="userSpaceOnUse" x1="309.5105" y1="156.0685" x2="309.5105" y2="126.2184">
		<stop  offset="0" style="stop-color:#FFEADB"/>
		<stop  offset="0.9944" style="stop-color:#C27CB6"/>
	</linearGradient>
	<path opacity="0.6" fill="url(#SVGID_26_)" d="M323.65,148.39l-2.48,3.72c0,0-13.63-10.71-16.58-11.62
		c-2.96-0.91-4.04-0.3-4.04-0.3l-3.05,3.97c0,0,5.62,5.08,6.11,11.91c0,0-1.87-8.64-8.24-11.26c0.49,0,2.62-1.81,3.55-3.21
		c0.9-1.35,5.67-11.83,6.82-15.37c-0.16,0.6-0.36,1.78,0.12,2.71c0.67,1.27,4.62,0.07,4.86,0c0.01,0,0.01,0,0.01,0l-4.53,9.26
		l-0.04,0.09l1.23,0.64l3.33-3.22l-1.67,3.96l12.16,2.19l-2.45,3.21l1.24,0.23L323.65,148.39z"/>
	<linearGradient id="SVGID_27_" gradientUnits="userSpaceOnUse" x1="315.2878" y1="145.7656" x2="315.2878" y2="132.3843">
		<stop  offset="0" style="stop-color:#FFB0B0"/>
		<stop  offset="0.984" style="stop-color:#FFC2A9"/>
	</linearGradient>
	<path fill="url(#SVGID_27_)" d="M314.15,132.4c0,0,2.37-0.35,3.9,2.76l-0.35,1.01c0,0,2.31,0.46,4.54,4.27c0,0-1.97,3.67-6.85,5.33
		c0,0-2.27-0.65-2.66-2.61l0.44-1.26l-1.78,1.36c0,0-2.12,0.65-3.06-2.56L314.15,132.4z"/>
	<linearGradient id="SVGID_28_" gradientUnits="userSpaceOnUse" x1="322.9021" y1="147.8262" x2="322.9021" y2="140.4882">
		<stop  offset="0" style="stop-color:#FFB0B0"/>
		<stop  offset="0.984" style="stop-color:#FFC2A9"/>
	</linearGradient>
	<path fill="url(#SVGID_28_)" d="M326.19,144.31c0,0,0.49-2.31-1.92-3.82l-4.68,5.28c0,0,0.14,1.69,2.17,2.06
		C321.75,147.83,324.95,146.72,326.19,144.31z"/>
	<linearGradient id="SVGID_29_" gradientUnits="userSpaceOnUse" x1="292.1114" y1="162.4518" x2="305.5008" y2="162.4518">
		<stop  offset="0.016" style="stop-color:#D1A1D6"/>
		<stop  offset="0.9944" style="stop-color:#BD89C4"/>
	</linearGradient>
	<path opacity="0.91" fill="url(#SVGID_29_)" d="M292.11,155.37c0,0,5.43,6.17,13.39,8.87l-3.43,5.3l-7.16-9.27l0.46-1.34
		C295.37,158.93,292.5,156.73,292.11,155.37z"/>
	<path fill="#E28183" d="M317.7,136.17c0,0-2.27,3.82-4.54,5.73l-0.44,1.26c0,0,4.4-3.03,6.02-6.53
		C318.75,136.62,318.22,136.24,317.7,136.17z"/>
</g>
<linearGradient id="SVGID_30_" gradientUnits="userSpaceOnUse" x1="273.4777" y1="209.5547" x2="273.4777" y2="142.3013">
	<stop  offset="0" style="stop-color:#CCCCFF"/>
	<stop  offset="1" style="stop-color:#755CBB"/>
</linearGradient>
<path opacity="0.5" fill="url(#SVGID_30_)" d="M301.33,176.97c-0.69,1.11-4.14,3.42-5.03,4.33c-0.89,0.9,0,3.88,0,3.88
	c-14.5,15.69-29.61,23.54-31.14,24.3c-0.09,0.04-0.12,0.06-0.12,0.06c-1.19,0.15-6.96-1.5-12.73-13.27
	c-5.23-10.66-6.73-17.77-6.97-19.01l-0.03-0.19l1.27-1.76l1.89-21.71l1.33,4.37c5.03-6.18,9.77-15.68,9.77-15.68l0.21,0.68v0.01
	c0.85,3.41,2.6,16.16,4.22,20.71c1.01,2.84,2.62,4.41,3.79,5.22l0.01,0.02l-0.01,0.01c-4.63,4.31-6.93,10.5-8.06,15.42
	c-1.04,4.52-1.11,7.98-1.11,7.98s1.28-6.13,5.32-13.5c1.47-2.68,3.61-5.08,5.72-7.04c1.59-1.48,3.18-2.72,4.47-3.64
	c1.11,0.7,2.05,1.81,2.95,1.34c-6.09,9.32-5.94,27.77-0.22,24.25c5.71-3.52,7.02-10.98,7.02-10.98c-1.35-9.1-0.95-19.35,0.14-21.3
	c1.32,0.04,5.09,2.75,5.31,2.68c-0.34,10.7,4.59,17.85,4.59,17.85l3.26-5.13c-4.74-8.14-4.39-16.07-4.39-16.07
	c0.2-0.09,1.34,0.77,1.34,0.77l-0.8,1.02c1.23,7.24,5.28,12.11,5.28,12.11l2.71-4.04C301.33,170.67,302.03,175.87,301.33,176.97z"/>
<linearGradient id="SVGID_31_" gradientUnits="userSpaceOnUse" x1="128.2063" y1="196.0051" x2="238.5616" y2="196.0051">
	<stop  offset="0" style="stop-color:#CCCCFF"/>
	<stop  offset="1" style="stop-color:#755CBB"/>
</linearGradient>
<path opacity="0.5" fill="url(#SVGID_31_)" d="M238.56,243.92v3.17l-0.05,0.06l-0.17,0.16l-0.14,0.12
	c-1.41,1.13-7.36,4.83-25.97,5.85c-22.06,1.2-36.75-6.03-36.75-6.03l1.11-3.1c0,0-1.03-0.9-1.11-1.35
	c-0.07-0.45,0.81-1.51,0.81-1.51s-2.22-1.2-2.22-2.71c0-1.36,3.62-5.3,4.21-9c0.07-0.4,0.1-0.79,0.09-1.18
	c-0.15-3.98-3.52-7.5-3.99-9.76c-0.01-0.02-0.01-0.03-0.01-0.03c-0.45-2.26,5.77-7.84,5.77-7.84c-5.32-17.19-6.36-40.26-6.36-40.26
	l-1.03-1.21c0,0-6.36,14.78-12.13,22.01c-5.77,7.24-14.2,13.43-15.68,13.12c-3.4,0-7.21-6.03-10.66-13.47
	c-3.45-7.44-3.66-28.82-3.84-30.14c-0.19-1.32-2.11-3.96-2.23-5.09c3.7,6.49,9.6,4.58,9.6,4.58c-4.27,0.1-6.49-8.05-6.49-8.05
	l-0.02-0.06l-0.02-0.06l-2.08-5.61c0.23,0.27,5.11,5.83,9.83,2.4c4.83-3.52,7.32-10.33,7.32-10.33v8.75c0,0,0.29,1.36,0.73,1.36
	c-0.29,4.03-1.12,8.93-2.14,13.76c-2.19,10.45-5.2,20.54-5.2,20.54s8.15-4.52,11.02-15.98c1.37-5.48,1.59-10.25,1.46-13.72
	c-0.12-2.97-0.5-5-0.66-5.74c-0.01-0.06-0.02-0.11-0.04-0.17c0-0.02-0.01-0.06-0.02-0.08c0-0.02-0.01-0.03-0.01-0.04l0.79,1.7
	l1.5,3.79c1.74,14.71-1.85,36.87-1.85,36.87c5.23-6.64,6.32-21.31,6.09-24.88c-0.1-1.7-0.23-3.8-0.32-5.52
	c-0.12-1.88-0.2-3.3-0.2-3.3l10.7,6.51l-1.98-6.38l7.79,6.38c0,0,7,8.59,14.2,9.6c7.2,1.01,33.63,0.41,33.63,0.41
	s-22.98,1.5-29.68,3.52c-6.71,2.01-7.99,4.32-7.99,4.32c4.85,25.14,31.68,33.61,32.52,33.87c-24.34-3.72-35.67-24.82-35.67-24.82
	s-0.4,11.87,1.48,16.39c1.87,4.52,12.92,15.58,27.12,17.89c1.19,0.19,2.37,0.31,3.54,0.37c11.98,0.57,21.89-5.67,22.91-6.33
	c0.05-0.04,0.09-0.06,0.09-0.06s-0.01,0.02-0.02,0.04c-0.38,0.6-5.29,7.63-25.12,8.4c-1.2,0.05-2.37,0.04-3.51-0.01
	c-0.01,0-0.02,0-0.02,0c-18.38-0.79-27.74-13.27-27.74-13.27s-6.8,3.72-2.46,9.25c0.05,0.06,0.09,0.12,0.14,0.18
	c1.28,1.5,4.1,3.34,7.43,5.24c0.09,0.06,0.19,0.11,0.27,0.16c4.03,2.27,8.75,4.61,12.41,6.54c0.02,0.01,0.04,0.02,0.05,0.02
	c2.23,1.19,4.07,2.2,5.09,2.97c0.01,0,0.01,0.01,0.01,0.01c1.03,0.76,1.24,1.26,0.23,1.38c-5.13,0.6-24.55-3.72-25.34-2.51
	c-0.79,1.21,0.96,4.32,0.96,4.32c17.83,9.01,55.99,4.57,57.19,4.43c-31.93,8.33-58.05-2.22-58.05-2.22l0.87,3.12
	c0,0,14.22,5.02,30.99,5.43c16.77,0.4,27.22-3.97,27.22-3.97L238.56,243.92z"/>
<linearGradient id="SVGID_32_" gradientUnits="userSpaceOnUse" x1="225.4964" y1="177.1821" x2="246.59" y2="177.1821">
	<stop  offset="0" style="stop-color:#CCEDFF"/>
	<stop  offset="1" style="stop-color:#755CBB"/>
</linearGradient>
<path opacity="0.5" fill="url(#SVGID_32_)" d="M225.5,172.35c0,0,12.7,0.7,21.09,2.97l-4.33,6.69
	C242.26,182.01,235.75,176.17,225.5,172.35z"/>
<linearGradient id="SVGID_33_" gradientUnits="userSpaceOnUse" x1="206.3646" y1="214.9158" x2="237.364" y2="214.9158">
	<stop  offset="0" style="stop-color:#CCEDFF"/>
	<stop  offset="1" style="stop-color:#755CBB"/>
</linearGradient>
<path opacity="0.5" fill="url(#SVGID_33_)" d="M237.36,208.04c0,0-7.92,6.74-15.71,9.85c-7.79,3.12-15.29,3.42-15.29,3.42
	s4.48,1.36,15.5-0.45c11.02-1.81,14.79-7.89,14.79-7.89L237.36,208.04z"/>
<linearGradient id="SVGID_34_" gradientUnits="userSpaceOnUse" x1="207.8001" y1="229.2033" x2="240.9194" y2="229.2033">
	<stop  offset="0" style="stop-color:#CCEDFF"/>
	<stop  offset="1" style="stop-color:#755CBB"/>
</linearGradient>
<path opacity="0.5" fill="url(#SVGID_34_)" d="M240.92,233.98L240.92,233.98c-14.66,3.87-33.27-1.67-33.12-2.35s5.1,0.3,16.56-2.04
	c11.11-2.27,15.14-6.29,15.38-6.54c-0.09,0.68-1.62,2.19-2.06,3.83C237.38,227.98,239.46,231.41,240.92,233.98z"/>
<linearGradient id="SVGID_35_" gradientUnits="userSpaceOnUse" x1="179.2969" y1="193.8289" x2="179.2969" y2="155.9412">
	<stop  offset="0" style="stop-color:#CCEDFF"/>
	<stop  offset="1" style="stop-color:#755CBB"/>
</linearGradient>
<path opacity="0.5" fill="url(#SVGID_35_)" d="M201.09,174.38c-12.52,1.3-15.9,4.85-15.9,4.85c-3.52,0.45-11.43-8.74-11.43-8.74
	l-1.03-1.21c0,0-6.36,14.78-12.13,22.01c-0.69,0.86-1.41,1.71-2.16,2.53l0.82-1.88c0,0,1.34-0.65,1.73-7.84
	c0.4-7.18-2.96-17.89-2.98-19.35s-0.52-8.83-0.52-8.83l10.7,6.51l-1.98-6.38l7.79,6.38c0,0,3.05,4.68,10.76,8.58
	C192.05,174.71,200.2,174.42,201.09,174.38z"/>
<linearGradient id="SVGID_36_" gradientUnits="userSpaceOnUse" x1="182.2893" y1="197.0138" x2="182.2893" y2="168.2937">
	<stop  offset="0" style="stop-color:#CCEDFF"/>
	<stop  offset="1" style="stop-color:#755CBB"/>
</linearGradient>
<path opacity="0.5" fill="url(#SVGID_36_)" d="M172.74,169.29l7.46-0.99c0,0,2.98,2.01,8.97,4.5l-4.99,7.5
	c0,0,1.98,10.69,7.66,16.72c0,0-15.08-8.54-17.2-15.72L172.74,169.29z"/>
<linearGradient id="SVGID_37_" gradientUnits="userSpaceOnUse" x1="137.7585" y1="160.3" x2="137.7585" y2="138.6009">
	<stop  offset="0" style="stop-color:#CCEDFF"/>
	<stop  offset="1" style="stop-color:#755CBB"/>
</linearGradient>
<path opacity="0.5" fill="url(#SVGID_37_)" d="M129.18,146.53l2.13,5.72c0,0,2.17,7.72,6.49,8.05c4.31,0.32,8.53-12.95,8.53-12.95
	v-8.75c0,0-4.59,10.03-9.54,11.16C131.83,150.89,129.18,146.53,129.18,146.53z"/>
<linearGradient id="SVGID_38_" gradientUnits="userSpaceOnUse" x1="154.9852" y1="141.1914" x2="163.5644" y2="141.1914">
	<stop  offset="0" style="stop-color:#CCEDFF"/>
	<stop  offset="1" style="stop-color:#755CBB"/>
</linearGradient>
<path opacity="0.5" fill="url(#SVGID_38_)" d="M154.99,142c0,0,3.85,7.84,8.58,10.25c0,0-5.63-13.92-4.44-22.12
	C159.12,130.13,157.05,131.45,154.99,142z"/>
<linearGradient id="SVGID_39_" gradientUnits="userSpaceOnUse" x1="248.2483" y1="193.8289" x2="248.2483" y2="153.6095">
	<stop  offset="0" style="stop-color:#CCCCFF"/>
	<stop  offset="1" style="stop-color:#755CBB"/>
</linearGradient>
<path opacity="0.76" fill="url(#SVGID_39_)" d="M248.48,153.61l1.33,4.37l1.35,35.85c0,0-3.41-6.82-5.8-16.56l1.24-1.95
	C246.59,175.32,248.68,161.81,248.48,153.61z"/>
<linearGradient id="SVGID_40_" gradientUnits="userSpaceOnUse" x1="292.6095" y1="185.1786" x2="292.6095" y2="164.1618">
	<stop  offset="0" style="stop-color:#CCCCFF"/>
	<stop  offset="1" style="stop-color:#755CBB"/>
</linearGradient>
<path opacity="0.5" fill="url(#SVGID_40_)" d="M289.35,164.16c0,0-0.75,17.61,6.59,19.13l0.36,1.88
	C296.3,185.18,286.8,184.82,289.35,164.16z"/>
<linearGradient id="SVGID_41_" gradientUnits="userSpaceOnUse" x1="269.2251" y1="184.2396" x2="269.2251" y2="168.1725">
	<stop  offset="0" style="stop-color:#CCCCFF"/>
	<stop  offset="1" style="stop-color:#755CBB"/>
</linearGradient>
<path opacity="0.3" fill="url(#SVGID_41_)" d="M277.1,169.52c0,0-0.28,0.63-2.95-1.34c0,0-9.24,6.67-12.79,16.07
	c0,0,5.69-8.63,8.72-9.57c3.03-0.93,3.76,2.51,3.76,2.51S275.03,172.33,277.1,169.52z"/>
<linearGradient id="SVGID_42_" gradientUnits="userSpaceOnUse" x1="133.3024" y1="161.6852" x2="133.3024" y2="155.7184">
	<stop  offset="0" style="stop-color:#CCEDFF"/>
	<stop  offset="1" style="stop-color:#755CBB"/>
</linearGradient>
<path opacity="0.5" fill="url(#SVGID_42_)" d="M128.21,155.72c0,0,3.55,6.68,10.21,4.58c0,0-3.99,2.74-7.99,0.51
	C130.43,160.81,127.95,156.47,128.21,155.72z"/>
<linearGradient id="SVGID_43_" gradientUnits="userSpaceOnUse" x1="148.9394" y1="179.8762" x2="148.9394" y2="147.2671">
	<stop  offset="0" style="stop-color:#CCCCFF"/>
	<stop  offset="1" style="stop-color:#755CBB"/>
</linearGradient>
<path opacity="0.5" fill="url(#SVGID_43_)" d="M151.48,147.27c0,0,4.89,18.62-7.86,32.61c0,0,8.28-4.33,10.16-14.36
	S151.48,147.27,151.48,147.27z"/>
<linearGradient id="SVGID_44_" gradientUnits="userSpaceOnUse" x1="231.2458" y1="156.9234" x2="231.2458" y2="132.3843">
	<stop  offset="0" style="stop-color:#CCEDFF"/>
	<stop  offset="1" style="stop-color:#755CBB"/>
</linearGradient>
<path opacity="0.5" fill="url(#SVGID_44_)" d="M239.03,132.38c0,0-0.55,8.41-4.5,14.44c-3.95,6.03-11.79,10.1-11.79,10.1
	s9.84-3.69,14.35-8.9C241.6,142.83,239.03,132.38,239.03,132.38z"/>
<linearGradient id="SVGID_45_" gradientUnits="userSpaceOnUse" x1="199.7063" y1="153.6062" x2="199.7063" y2="119.7376">
	<stop  offset="0" style="stop-color:#CCEDFF"/>
	<stop  offset="1" style="stop-color:#755CBB"/>
</linearGradient>
<path opacity="0.5" fill="url(#SVGID_45_)" d="M188.71,119.74c0,0,0,7.03,2.22,14.19c2.22,7.16,21.48,19.68,21.48,19.68
	s-19.85-8.41-23.7-15.96C184.87,130.08,188.71,119.74,188.71,119.74z"/>
<linearGradient id="SVGID_46_" gradientUnits="userSpaceOnUse" x1="188.4868" y1="159.8008" x2="243.9841" y2="159.8008">
	<stop  offset="0" style="stop-color:#8642A0"/>
	<stop  offset="1" style="stop-color:#6456C0"/>
</linearGradient>
<path class="check" fill="url(#SVGID_46_)" d="M188.49,153.21v11.45c0,0,25.85-0.21,54.84,1.74l0.66-10.3
	C243.98,156.1,218.79,153.05,188.49,153.21z"/>
<g>
	<path fill="#EBEFFF" d="M193.28,155.82c0.01-0.2,0.1-0.29,0.28-0.28l5.24,0.16c0.52,0.02,0.96,0.1,1.32,0.24
		c0.36,0.14,0.65,0.34,0.87,0.59c0.22,0.25,0.37,0.55,0.46,0.9c0.09,0.35,0.13,0.74,0.12,1.17l-0.04,1.47
		c-0.01,0.43-0.08,0.82-0.19,1.16c-0.11,0.35-0.28,0.64-0.52,0.88c-0.23,0.24-0.53,0.42-0.9,0.54c-0.37,0.12-0.81,0.17-1.33,0.16
		l-2.82-0.09l-0.58-1.68l-0.08,0l-0.05,1.66l-1.98-0.06L193.28,155.82z M195.11,160.86l3.35,0.1c0.38,0.01,0.65-0.06,0.81-0.23
		c0.17-0.16,0.25-0.46,0.27-0.89l0.04-1.19c0.01-0.44-0.06-0.75-0.21-0.91c-0.15-0.16-0.42-0.25-0.8-0.26l-3.2-0.1
		c-0.04,0-0.08,0.01-0.11,0.04c-0.03,0.03-0.04,0.06-0.04,0.1L195.11,160.86z"/>
	<path fill="#EBEFFF" d="M204.39,158.87l-0.07,0l-0.06,2.13c0,0.09,0.04,0.14,0.13,0.14l5.89,0.18l-0.05,1.85l-7.72-0.24
		c-0.19-0.01-0.28-0.11-0.27-0.3l0.19-6.53c0.01-0.2,0.1-0.29,0.29-0.28l7.5,0.23c0.19,0.01,0.29,0.11,0.28,0.3l-0.06,1.85
		l-1.85,0.64l-0.08,0l0.03-0.95c0-0.07-0.03-0.11-0.09-0.11l-3.96-0.12c-0.05,0-0.09,0.01-0.1,0.04c-0.02,0.03-0.03,0.06-0.03,0.09
		l-0.03,0.89l3.26,0.1l-0.04,1.45l-2.73-0.08L204.39,158.87z"/>
	<path fill="#EBEFFF" d="M217.48,158.74l-0.08,0l0.02-0.78c0-0.08-0.03-0.12-0.11-0.12l-3.68-0.11c-0.13,0-0.23,0.02-0.28,0.08
		c-0.05,0.06-0.08,0.14-0.08,0.25l-0.01,0.18c0,0.14,0.02,0.23,0.06,0.27c0.04,0.04,0.13,0.07,0.26,0.1l4.32,0.75
		c0.27,0.05,0.51,0.12,0.7,0.2c0.19,0.09,0.34,0.2,0.46,0.34c0.12,0.14,0.2,0.3,0.24,0.5c0.05,0.2,0.06,0.43,0.06,0.7l-0.02,0.57
		c-0.01,0.29-0.05,0.55-0.13,0.77c-0.08,0.22-0.2,0.41-0.36,0.56c-0.16,0.15-0.38,0.26-0.64,0.33c-0.26,0.07-0.59,0.1-0.97,0.09
		l-6.22-0.19l0.05-1.85l5.57,0.17c0.17,0,0.28-0.02,0.33-0.08c0.06-0.06,0.09-0.17,0.09-0.32l0.01-0.2c0-0.12-0.01-0.21-0.05-0.26
		c-0.04-0.05-0.12-0.08-0.24-0.1l-4.17-0.67c-0.28-0.05-0.52-0.11-0.72-0.2c-0.2-0.08-0.36-0.19-0.48-0.33
		c-0.12-0.13-0.21-0.3-0.26-0.49c-0.05-0.19-0.07-0.42-0.07-0.68l0.01-0.5c0.02-0.51,0.16-0.91,0.44-1.19
		c0.28-0.28,0.73-0.4,1.36-0.38l6.2,0.19c0.2,0.01,0.29,0.11,0.29,0.32l-0.04,1.47L217.48,158.74z"/>
	<path fill="#EBEFFF" d="M220.1,163.48l0.21-7.12l1.98,0.06l-0.21,7.12L220.1,163.48z"/>
	<path fill="#EBEFFF" d="M229.41,160.71c0-0.1,0-0.21-0.01-0.33c-0.01-0.11-0.01-0.21-0.02-0.3l0-0.09l1.96,0.06l-0.1,3.49
		c-0.01,0.18-0.09,0.27-0.25,0.27l-5.26-0.16c-0.52-0.02-0.96-0.1-1.32-0.24c-0.36-0.14-0.65-0.34-0.87-0.59
		c-0.22-0.25-0.37-0.55-0.46-0.9c-0.09-0.35-0.13-0.74-0.12-1.17l0.04-1.47c0.01-0.43,0.08-0.82,0.19-1.16
		c0.11-0.35,0.28-0.64,0.52-0.87c0.23-0.24,0.53-0.42,0.9-0.54c0.37-0.12,0.81-0.18,1.33-0.16l5.23,0.16
		c0.19,0.01,0.28,0.11,0.27,0.3l-0.05,1.54l-1.85,0.63l-0.08,0l0.02-0.68c0-0.07-0.03-0.1-0.08-0.1l-3.34-0.1
		c-0.19-0.01-0.35,0.01-0.49,0.04c-0.13,0.03-0.24,0.09-0.33,0.18c-0.09,0.09-0.15,0.2-0.19,0.35c-0.04,0.15-0.07,0.33-0.07,0.54
		l-0.04,1.25c-0.01,0.43,0.06,0.73,0.21,0.91c0.16,0.17,0.42,0.27,0.8,0.28l3.31,0.1c0.07,0,0.11-0.04,0.11-0.11L229.41,160.71z"/>
	<path fill="#EBEFFF" d="M235.52,156.83c0.15,0,0.25,0.03,0.31,0.08c0.06,0.05,0.11,0.12,0.16,0.22l2.5,5.2
		c0.04,0.08,0.1,0.12,0.18,0.12l0.11,0c0.1,0,0.16-0.05,0.16-0.15l0.16-5.36l1.79,0.06l-0.2,6.83c-0.01,0.19-0.1,0.28-0.28,0.27
		l-2.84-0.09c-0.13,0-0.23-0.03-0.3-0.07c-0.07-0.04-0.13-0.12-0.18-0.23l-2.59-5.19c-0.04-0.08-0.1-0.12-0.18-0.12l-0.1,0
		c-0.1,0-0.15,0.05-0.16,0.15l-0.16,5.35l-1.79-0.06l0.2-6.82c0.01-0.2,0.1-0.29,0.28-0.28L235.52,156.83z"/>
</g>
<linearGradient id="SVGID_47_" gradientUnits="userSpaceOnUse" x1="193.2718" y1="127.1574" x2="229.3881" y2="127.1574">
	<stop  offset="0" style="stop-color:#CCCCFF"/>
	<stop  offset="1" style="stop-color:#755CBB"/>
</linearGradient>
<path opacity="0.5" fill="url(#SVGID_47_)" d="M229.39,121.26c-0.61,7.4-2.82,12.56-5.18,16.04c-3.25,4.77-6.76,6.41-6.76,6.41
	c-3.51-1.56-6.56-3.5-9.18-5.64c-11.13-9.07-14.72-21.65-15-22.68c4.7,11.57,11.6,18.58,16.83,22.53c4.22,3.19,7.35,4.39,7.35,4.39
	v-3.7c-0.84-0.32-1.65-0.68-2.42-1.08c-9.21-4.73-14.05-14.6-16.32-20.99c-0.01-0.02-0.01-0.02-0.02-0.04
	c-1.23-3.45-1.7-5.88-1.7-5.88h1.67l-0.55,1.19l-0.02,0.04c0.27,1.21,0.57,2.37,0.91,3.48c0.01,0.03,0.02,0.06,0.03,0.09
	c5.15,16.57,18.41,21.91,18.41,21.91c9.21-6.93,9.03-17.94,9.03-17.94v-1.51l1.73,0.53L229.39,121.26z"/>
<linearGradient id="SVGID_48_" gradientUnits="userSpaceOnUse" x1="286.1165" y1="182.7824" x2="286.1165" y2="161.4779">
	<stop  offset="0" style="stop-color:#CCCCFF"/>
	<stop  offset="1" style="stop-color:#755CBB"/>
</linearGradient>
<path opacity="0.3" fill="url(#SVGID_48_)" d="M284.04,161.48c0,0-2.5,8.34-0.14,21.3c0,0,1.18-16.44,2.07-17.87
	c0.89-1.43,3.37-0.75,3.37-0.75S285.44,161.96,284.04,161.48z"/>
<linearGradient id="SVGID_49_" gradientUnits="userSpaceOnUse" x1="256.5729" y1="206.8162" x2="256.5729" y2="142.3013">
	<stop  offset="0" style="stop-color:#CCCCFF"/>
	<stop  offset="1" style="stop-color:#755CBB"/>
</linearGradient>
<path opacity="0.5" fill="url(#SVGID_49_)" d="M259.74,206.82c-2.19-1.95-4.81-5.2-7.42-10.54c-5.23-10.66-6.73-17.77-6.97-19.01
	l1.24-1.95l1.66-16.39l1.55-0.95c0,0,5.55-6.25,9.77-15.68c0.06,0.14,0.13,0.37,0.21,0.68v0.01c0.85,3.41,2.6,16.16,4.22,20.71
	c1.01,2.84,2.62,4.41,3.79,5.22c0,0-9.61,14.53-10.08,24.9C257.31,203.27,259.37,206.34,259.74,206.82z"/>
<linearGradient id="SVGID_50_" gradientUnits="userSpaceOnUse" x1="188.525" y1="237.12" x2="188.525" y2="218.6258">
	<stop  offset="0" style="stop-color:#CCCCFF"/>
	<stop  offset="1" style="stop-color:#755CBB"/>
</linearGradient>
<path opacity="0.5" fill="url(#SVGID_50_)" d="M202.68,237.12c0,0-17.32-2.9-24.4-7.54c0,0-0.01,0-0.01-0.01
	c0.07-0.4,0.1-0.79,0.09-1.18c-0.15-3.98-3.52-7.5-3.99-9.76c0.08,0.21,0.59,1.41,3.04,3.56c1.55,1.36,3.9,3.11,7.43,5.24
	c0.09,0.06,0.19,0.11,0.27,0.16c5,3.01,9.3,5.05,12.41,6.54c0.02,0.01,0.04,0.02,0.05,0.02
	C200.38,235.48,202.19,236.36,202.68,237.12C202.68,237.11,202.68,237.12,202.68,237.12z"/>
<linearGradient id="SVGID_51_" gradientUnits="userSpaceOnUse" x1="223.7708" y1="232.0397" x2="223.7708" y2="223.0583">
	<stop  offset="0" style="stop-color:#CCCCFF"/>
	<stop  offset="1" style="stop-color:#755CBB"/>
</linearGradient>
<path opacity="0.5" fill="url(#SVGID_51_)" d="M239.74,223.06c-0.09,0.68-1.62,2.19-2.06,3.83c0,0-6.36,6.86-29.88,4.75
	c0.16-0.68,5.1,0.3,16.56-2.04C235.47,227.33,239.5,223.31,239.74,223.06z"/>
<path opacity="0.5" fill="#7A4AC0" d="M243.65,130.25l-15.04,4.97l-4.4,2.08l-0.02,0.01l-2.87,0.01l-3.87,0.01l-2.42,0.2l-1.28,0.1
	l-3.65,0.29l-1.83,0.15l-18.03-6.65l-3.22-1.19l-14.83-5.48c0.44-0.18,0.88-0.35,1.35-0.54c9.95-4.02,19.72-8.9,19.72-8.9l3.75-4.7
	h1.67c1.49-3.33,2.48-6.44,3.12-8.89l0.99-4.54c0.07-0.44,0.1-0.68,0.1-0.68l5.31,2.86l17.9,14.59c-0.02,0.99,0.02,1.89,0.07,2.64
	l0.26,1.84c0.05-0.36,0.06-0.57,0.06-0.57l1.73,0.53l1.18,2.86c0,0,2,3.17,9.92,6.72C240.67,128.59,242.14,129.36,243.65,130.25z"/>
<g>
	<linearGradient id="SVGID_52_" gradientUnits="userSpaceOnUse" x1="223.3823" y1="116.5988" x2="223.3823" y2="55.1581">
		<stop  offset="0.016" style="stop-color:#FFC2A9"/>
		<stop  offset="1" style="stop-color:#FF9595"/>
	</linearGradient>
	<path fill="url(#SVGID_52_)" d="M232.2,116.26c0,0-7.01,1.61-14.75-2.21s-14.24-15.08-14.64-17.89
		c-0.39-2.82,2.96-10.15,2.96-15.88c0-5.73-2.76-15.58,1.87-20.91c4.64-5.32,25.94-6.13,32.85,0.71c0,0,2.14,5.48,2.14,8.57
		c0,0.75-0.13,1.85-0.33,3.11c-0.06,0.47-0.15,0.97-0.23,1.49c-0.62,3.75-1.47,8.32-1.07,10.33c0.14,0.7,0.36,1.34,0.62,1.96v0.01
		c0.85,2.01,2.12,3.6,2.34,5.34C244.26,93.15,241.28,109.23,232.2,116.26z"/>
	<linearGradient id="SVGID_53_" gradientUnits="userSpaceOnUse" x1="200.9116" y1="91.8061" x2="200.9116" y2="73.6919">
		<stop  offset="0.016" style="stop-color:#FFC2A9"/>
		<stop  offset="1" style="stop-color:#FF9595"/>
	</linearGradient>
	<path fill="url(#SVGID_53_)" d="M205.71,78.66c0,0-1.91-4.89-6.72-4.97c0,0-2.81,1.13-3.25,3.32c0,0,1.04,7.92,2.22,11.61
		c1.18,3.69,5.52,3.16,5.52,3.16S207.26,85.89,205.71,78.66z"/>
	<linearGradient id="SVGID_54_" gradientUnits="userSpaceOnUse" x1="231.7507" y1="98.6589" x2="232.5065" y2="94.7236">
		<stop  offset="0" style="stop-color:#E1616A"/>
		<stop  offset="1" style="stop-color:#FF8883"/>
	</linearGradient>
	<path fill="url(#SVGID_54_)" d="M224.19,94.78c0,0,1.6-0.13,2.29,0.4c0.69,0.53,3.21,3.02,6.39,3.69c3.18,0.68,5.31-2.08,5.99-2.22
		c0.68-0.14,1.42,0.84,1.42,0.84s-0.29-1.13-1.95-1.64c0,0-0.67,2.6-5.28,1.71c-4.61-0.89-6.57-2.98-6.57-2.98l-0.23-0.43
		C226.25,94.15,224.95,94.42,224.19,94.78z"/>
	<linearGradient id="SVGID_55_" gradientUnits="userSpaceOnUse" x1="225.0344" y1="95.6306" x2="225.0344" y2="56.0504">
		<stop  offset="0" style="stop-color:#FFEADB"/>
		<stop  offset="0.9944" style="stop-color:#C27CB6"/>
	</linearGradient>
	<path opacity="0.6" fill="url(#SVGID_55_)" d="M217.39,70.43l0.06-0.5c0,0,4.6-8.22,13.7-8.45c9.1-0.23,11.15,5.58,11.15,5.58
		l1.68-2.61l-3.84-7.95l-26.73-0.45l-6.51,5.35l-0.82,13.1l2.89,17.3l7.04,3.82l1.99-1.8c-0.73-5.79-4.96-11.08-4.96-11.08
		l3.08-2.18c0,0,7.91,3.9,12.49,2.74c0,0,3.44-10.23,3.24-17.81C231.86,65.49,220.13,67.26,217.39,70.43z"/>
	<path fill="#38368E" d="M216.98,71.04c0,0,0.44-2.96,5.35-4.15c5.46-1.32,9.9-2.44,9.9-2.44s-0.97,3.25-2.79,4.47
		c0,0-5.78-0.21-8.71,0.46C217.81,70.07,216.98,71.04,216.98,71.04z"/>
	<path fill="#38368E" d="M242.3,67.06c0,0-2.77,2.18-4.66,7.38c0,0,1.81-2.41,3.48-2.37c1.14,0.03,0.96,1.17,0.96,1.17
		S243.21,70.14,242.3,67.06z"/>
	<linearGradient id="SVGID_56_" gradientUnits="userSpaceOnUse" x1="223.1419" y1="79.4216" x2="223.1419" y2="71.581">
		<stop  offset="0" style="stop-color:#CF6074"/>
		<stop  offset="1" style="stop-color:#F37270"/>
	</linearGradient>
	<path fill="url(#SVGID_56_)" d="M218.82,79.42c0,0,0.3-6.26,6.29-7.84c0,0,2.14,2.83,2.37,6.03
		C227.47,77.61,224.29,77.01,218.82,79.42z"/>
	<linearGradient id="SVGID_57_" gradientUnits="userSpaceOnUse" x1="238.4848" y1="81.9096" x2="238.4848" y2="75.0867">
		<stop  offset="0" style="stop-color:#CF6074"/>
		<stop  offset="1" style="stop-color:#FF817F"/>
	</linearGradient>
	<path fill="url(#SVGID_57_)" d="M235.97,81.91c0,0,0.48-4.98,3.29-6.82c0,0,1.91,1.46,1.71,5.63
		C240.98,80.72,239.3,80.1,235.97,81.91z"/>
	<path fill="#FFEBED" d="M218.82,79.42c0,0,1.95,2.44,7.4,2.92c0,0,1.04-1.61,0.94-4.76C227.15,77.57,222.14,77.08,218.82,79.42z"/>
	<path fill="#FFEBED" d="M235.97,81.91v0.73c0,0,0.84,1.78,3.85,2.09c0,0,0.97-1.54,1.05-4.04
		C240.87,80.69,238.96,80.2,235.97,81.91z"/>
	<path fill="#7F9EC9" d="M224.64,77.44c0,0-1.38,1.71-1.26,4.41c0,0,1.81,0.43,2.83,0.48c0,0,1.19-1.69,0.94-4.76
		C227.15,77.57,225.57,77.23,224.64,77.44z"/>
	<path fill="#7F9EC9" d="M238.83,80.77c0,0-0.78,0.85-0.93,3.47c0,0,1.07,0.48,1.92,0.48c0,0,1.1-1.59,1.05-4.04
		C240.87,80.69,240.11,80.39,238.83,80.77z"/>
	<path fill="#38368E" d="M224.19,82.05c0,0-0.49-3.38,1.4-4.67l1.55,0.2c0,0,0.52,2.68-0.94,4.76
		C226.21,82.34,224.67,82.16,224.19,82.05z"/>
	<path fill="#38368E" d="M239.52,80.62c0,0-0.7,1.5-1.03,3.84c0,0,0.54,0.23,1.34,0.26c0,0,1.06-1.33,1.05-4.04
		C240.87,80.69,240.06,80.47,239.52,80.62z"/>
	<path fill="#131163" d="M218.82,79.42c0,0,3.62-2.15,9.8-0.92l-1.15-0.89C227.47,77.61,223.07,76.22,218.82,79.42z"/>
	<path fill="#131163" d="M235.97,81.91c0,0,2.91-1.57,6.29-0.74l-1.4-1.05C240.87,80.12,238.6,79.76,235.97,81.91z"/>
	<path fill="#FFFFFF" d="M222.74,79.42c0,0,0.99-0.22,1.87,0.69C224.61,80.12,223.39,80.48,222.74,79.42z"/>
	<path fill="#FFFFFF" d="M237.31,82.34c0,0,1.55-0.31,2.08,0.41C239.39,82.75,238.56,83.33,237.31,82.34z"/>
	<path fill="#C6659C" d="M219.18,79.79c0,0,2.82,2.84,7.33,3.52l0.12-1.67l-0.41,0.71C226.21,82.34,221.87,82.07,219.18,79.79z"/>
	<path fill="#C6659C" d="M235.97,82.64c0,0,0.5,1.83,4.17,2.66l-0.12-0.9l-0.21,0.32C239.82,84.72,237.21,84.38,235.97,82.64z"/>
	<path fill="#CB5F7D" d="M228.62,89.98c0,0,1.37-0.3,3.88,0c2.51,0.3,5.34,1.01,6.89,0c0,0-2.05,2.09-3.83,2.41
		c-1.78,0.32-4.49-1.27-4.49-1.27l-1.18,0.02C229.88,91.14,228.97,90.68,228.62,89.98z"/>
	<path fill="#9F4A8B" d="M230.06,91.13c0,0,0.62-0.4,1.13-0.3s1.04,0.87,1.04,0.87S231.14,91.11,230.06,91.13z"/>
	<path fill="#FFBCAF" d="M239.39,89.98c0.66-0.65-2.75-6.83-4.37-7.06c-1.63-0.23-3.16,6.93-3.16,6.93s2.26,0.32,4.46,0.62
		C238.51,90.77,239.39,89.98,239.39,89.98z"/>
	<linearGradient id="SVGID_58_" gradientUnits="userSpaceOnUse" x1="239.1147" y1="85.8797" x2="239.1147" y2="70.5263">
		<stop  offset="0" style="stop-color:#FFEADB"/>
		<stop  offset="0.9944" style="stop-color:#C27CB6"/>
	</linearGradient>
	<path opacity="0.6" fill="url(#SVGID_58_)" d="M241.82,70.53c-0.92-0.12-4.18,3.92-4.18,3.92s-2.07,6.53-1.66,8.47
		c0.41,1.94,5.43,2.97,5.43,2.97l0.21-0.34v-0.01c-0.26-0.61-0.48-1.26-0.62-1.96c-0.4-2.01,0.45-6.58,1.07-10.33
		c0,0,0.2-0.77,0.23-1.49C242.32,71.15,242.24,70.58,241.82,70.53z"/>
	<linearGradient id="SVGID_59_" gradientUnits="userSpaceOnUse" x1="224.1913" y1="117.3714" x2="224.1913" y2="42.8592">
		<stop  offset="0" style="stop-color:#2E33A0"/>
		<stop  offset="1" style="stop-color:#0665A5"/>
	</linearGradient>
	<path fill="url(#SVGID_59_)" d="M241.67,97.06c-1.04-2.21-0.4-3.37-9.42-4.57c-12.76-1.71-13.86,2.26-16.03,1.66
		c-0.08-0.02-0.17-0.06-0.26-0.1c-2.35-0.93-7.89-6.48-8.03-13.95c-0.15-7.77,4.96-13.27,4.96-13.27c-1.85-1.58-2.59-6.18-0.59-8.14
		c2-1.96,5.4-1.5,13.76-0.6c8.36,0.91,8.36,0.38,8.36,0.38c2.65,0.69,4.18,3.23,4.61,4.04c0.09,0.16,0.12,0.25,0.12,0.25l1.04-0.98
		c2.81,4.15,2.3,8.67,2.3,8.67s4.58-9.5,4.06-10.85c-0.95-2.48-3.6-6.1-3.76-6.33l-0.01-0.01c0,0-0.74-7.23-2.96-7.23
		s-11.69,2.18-11.69,2.18c1.04-2.48,0.89-5.35,0.89-5.35s-0.02,0.02-0.04,0.04c-3.09,2.83-6.11,3.14-10.39,5.16
		c-2.15,1.03-3.17,1.97-4.01,2.96l-0.29,0.35l-0.3,0.37c-0.3,0.38-0.6,0.77-0.97,1.17c-0.02,0.02-0.04,0.04-0.05,0.05
		c-0.02,0.02-0.02,0.02-0.02,0.02c-0.34,0.38-0.75,0.77-1.24,1.19c-2.81,2.33-8.99,3.89-9.74,6.36c-0.74,2.46,0.94,5.83,1.83,9.29
		c0.88,3.47,0.48,6.53,0.48,6.53s2.94,3.87,1.97,9.53c-0.87,5.07-2.76,5.9-2.76,5.9c-1.34,2.79-0.7,5.4-0.7,5.4
		c2.73,11.08,14.04,17.67,14.04,17.67c10.06,3.82,16.67,2.16,16.67,2.16s0,0,0.01-0.01c7.32-4.86,9.82-20.95,9.93-21.7
		C243.3,95.5,241.94,97.65,241.67,97.06z M237.16,107.32c-1.77-0.3-2.15-4.88-2.73-5.48c-0.59-0.6-3.8-0.35-3.8-0.35
		s-2.96,3.42-4.14,3.52c-1.19,0.1-7.49-2.51-6.13-6.43c1.36-3.92,6.13-4.42,6.13-4.42s2.47,2.11,6.16,2.36
		c3.7,0.25,5.04-0.45,5.47-0.64c0.45-0.21,2.83,0.9,2.76,4.32C240.84,102.56,238.94,107.62,237.16,107.32z"/>
	<path fill="#D2726C" d="M236.7,84.29c0,0,3.19,4.03,2.88,5.55c-0.33,1.66-4.02,2.55-4.02,2.55s2.96-1.04,3.57-2.55
		C239.12,89.84,238.36,86.79,236.7,84.29z"/>
	<linearGradient id="SVGID_60_" gradientUnits="userSpaceOnUse" x1="243.3916" y1="70.4493" x2="243.3916" y2="53.2602">
		<stop  offset="0" style="stop-color:#FFEADB"/>
		<stop  offset="0.9944" style="stop-color:#8860C7"/>
	</linearGradient>
	<path opacity="0.6" fill="url(#SVGID_60_)" d="M242.49,70.45c0,0,0.52-4.52-2.3-8.67c2.26-4.11,2.58-8.52,2.58-8.52l0.01,0.01
		c0.77,1.92,1.2,5.65,1.2,5.65l2.56,0.68C247.07,60.95,242.49,70.45,242.49,70.45z"/>
	<linearGradient id="SVGID_61_" gradientUnits="userSpaceOnUse" x1="220.4113" y1="117.3714" x2="220.4113" y2="42.8592">
		<stop  offset="0" style="stop-color:#CCC2DB"/>
		<stop  offset="0.9944" style="stop-color:#8860C7"/>
	</linearGradient>
	<path opacity="0.6" fill="url(#SVGID_61_)" d="M239.03,62.51c-0.43-0.81-1.95-3.35-4.61-4.04c0,0,0,0.53-8.36-0.38
		c-8.35-0.9-11.76-1.35-13.76,0.6c-2,1.97-1.26,6.56,0.59,8.14c0,0-5.11,5.51-4.96,13.27c0.14,7.47,5.68,13.02,8.03,13.95
		l-0.11,0.83c0,0,0.41,17.11,4.5,18.47c4.08,1.35,12.54,0.65,13.33,1.46c0.75,0.76-0.11,2.08-0.19,2.2
		c-0.01,0.01-0.01,0.01-0.01,0.01s-6.61,1.66-16.67-2.16c0,0-11.3-6.6-14.04-17.67c0,0-0.63-2.61,0.7-5.4c0,0,1.9-0.83,2.76-5.9
		c0.98-5.66-1.97-9.53-1.97-9.53s0.41-3.06-0.48-6.53c-0.89-3.47-2.57-6.84-1.83-9.29c4.73,0.76,7.84-1.76,7.84-1.76
		s0.83-1.17,4.49-1.77c3.66-0.6,18.38,0.91,18.38,0.91s-1.48-1.25-4.58-2.08c-2.94-0.79-12.96,0.13-14.04,0.21
		c1.15-0.21,12.51-2.2,13.81-1.8c1.37,0.41,6.29,2.71,6.29,2.71c-0.45-2.3-4.85-7.84-4.85-7.84s-6.21,0.11-10.28,0.98
		c-3.63,0.77-5.62,2.47-6.01,2.82l0.97-1.17l0.3-0.37l0.29-0.35l1.42-0.25l7.14-2.94c2.4-1.31,5.47-4.54,5.84-4.93
		c0.02-0.02,0.04-0.04,0.04-0.04s0.15,2.86-0.89,5.35c6.03-0.76,8.06-0.37,8.06-0.37C238.94,51.79,239.03,62.51,239.03,62.51z"/>
	<linearGradient id="SVGID_62_" gradientUnits="userSpaceOnUse" x1="225.313" y1="117.3538" x2="225.313" y2="114.1524">
		<stop  offset="0" style="stop-color:#776D7E"/>
		<stop  offset="1" style="stop-color:#9D68C2"/>
	</linearGradient>
	<path opacity="0.5" fill="url(#SVGID_62_)" d="M216.82,114.85c0,0,3.69-0.89,9.27-0.66c5.58,0.23,8.78,0.25,7.4,2.82
		C233.49,117.01,226.48,118.62,216.82,114.85z"/>
	<linearGradient id="SVGID_63_" gradientUnits="userSpaceOnUse" x1="234.5275" y1="48.2069" x2="234.5275" y2="45.8285">
		<stop  offset="0" style="stop-color:#1F77D1"/>
		<stop  offset="1" style="stop-color:#0686C9"/>
	</linearGradient>
	<path fill="url(#SVGID_63_)" d="M236.2,47.83c0,0,3.39-1.35,4.73-1.13c0,0-0.53-0.72-1.08-0.87c-0.55-0.15-11.71,2.37-11.71,2.37
		S235.09,47.38,236.2,47.83z"/>
	<linearGradient id="SVGID_64_" gradientUnits="userSpaceOnUse" x1="219.663" y1="56.0375" x2="219.663" y2="49.0054">
		<stop  offset="0" style="stop-color:#1F77D1"/>
		<stop  offset="1" style="stop-color:#0686C9"/>
	</linearGradient>
	<path fill="url(#SVGID_64_)" d="M229.32,49.11c0,0-0.27,3.76-1.44,5.12l-13.81,1.8l-4.05-0.73c0,0,1.57-0.68,3.29-2.73
		C215.02,50.53,224.03,48.51,229.32,49.11z"/>
	<linearGradient id="SVGID_65_" gradientUnits="userSpaceOnUse" x1="244.6629" y1="59.6026" x2="244.6629" y2="53.2602">
		<stop  offset="0" style="stop-color:#1F77D1"/>
		<stop  offset="1" style="stop-color:#0686C9"/>
	</linearGradient>
	<path fill="url(#SVGID_65_)" d="M242.78,53.26c0,0,1.12,3.7,1.21,5.66l2.56,0.68C246.55,59.6,245.77,56.8,242.78,53.26z"/>
	<linearGradient id="SVGID_66_" gradientUnits="userSpaceOnUse" x1="203.5568" y1="87.5185" x2="195.4699" y2="77.6111">
		<stop  offset="0" style="stop-color:#FFEADB"/>
		<stop  offset="0.9944" style="stop-color:#B060F4"/>
	</linearGradient>
	<path opacity="0.8" fill="url(#SVGID_66_)" d="M205.14,85.3c0,0-0.97-4.75-3.35-7.1c-2.38-2.35-5.09-1.6-5.09-1.6
		s0.74,8.81,1.52,10.96c0.78,2.15,1.96,2.71,1.96,2.71s-1.66-1.49-1.89-4.4c-0.22-2.91-0.3-7.02,0.33-7.51
		c0.63-0.49,3.17,1.42,3.17,1.42s-0.8,1-1.28,3.6c-0.48,2.6,1.29,4.48,1.96,4.44c0.67-0.04-0.04-3,0.07-3.86
		C202.65,83.12,204.13,83.3,205.14,85.3z"/>
	<linearGradient id="SVGID_67_" gradientUnits="userSpaceOnUse" x1="204.3733" y1="86.227" x2="200.3813" y2="81.3363">
		<stop  offset="0" style="stop-color:#FFEADB"/>
		<stop  offset="0.9944" style="stop-color:#B060F4"/>
	</linearGradient>
	<path opacity="0.8" fill="url(#SVGID_67_)" d="M202.77,79.4c0,0-2.6,1.74-2.32,5.31c0.28,3.57,2.28,3.41,2.29,2.66
		c0.01-0.75-0.38-2.68-0.18-3.77c0.2-1.09,1.93-0.6,1.93-0.6S203.36,80.17,202.77,79.4z"/>
	<path fill="#34C7FF" d="M243.43,95.3c0,0-3.23,15.02-9.94,21.71C233.49,117.01,241.14,113.95,243.43,95.3z"/>
	<path fill="#34C7FF" d="M239.84,45.84c0,0,1.7,1.35,2.03,6.04c0.32,4.69-1.67,9.9-1.67,9.9s2.56-3.9,2.81-8.17
		C243.25,49.34,241.19,46.38,239.84,45.84z"/>
</g>
<linearGradient id="SVGID_68_" gradientUnits="userSpaceOnUse" x1="219.2021" y1="56.6664" x2="232.6827" y2="56.6664">
	<stop  offset="0" style="stop-color:#1F77D1"/>
	<stop  offset="1" style="stop-color:#0686C9"/>
</linearGradient>
<path fill="url(#SVGID_68_)" d="M219.2,55.66c0,0,3.94,1.37,8.27,1.76c4.32,0.39,5.21,0.48,5.21,0.48s-1.74-1.72-5.44-2.24
	C223.54,55.15,219.2,55.66,219.2,55.66z"/>
<linearGradient id="SVGID_69_" gradientUnits="userSpaceOnUse" x1="238.216" y1="97.7598" x2="242.3048" y2="97.7598">
	<stop  offset="0" style="stop-color:#1F77D1"/>
	<stop  offset="1" style="stop-color:#0686C9"/>
</linearGradient>
<path fill="url(#SVGID_69_)" d="M238.25,95.63c0,0,1.89,0,2.63,2.41c0.59,1.92,0.76,3.58,0.76,3.58l0.67-2.64
	c0,0-0.87-3.35-1.78-4.1c-0.65-0.54-1.78-1.09-2.31-0.96L238.25,95.63z"/>
<linearGradient id="SVGID_70_" gradientUnits="userSpaceOnUse" x1="233.168" y1="94.6609" x2="237.578" y2="94.6609">
	<stop  offset="0" style="stop-color:#1F77D1"/>
	<stop  offset="1" style="stop-color:#0686C9"/>
</linearGradient>
<path fill="url(#SVGID_70_)" d="M233.17,93.22l0.32,2.86c0,0,2.3,0.19,3.82-0.45l0.27-1.73C237.58,93.9,234.65,93.14,233.17,93.22z"
	/>
<path fill="#34C7FF" d="M243.65,130.25c0,0,13.45,10.01,15.19,13.46c1.75,3.44,2.45,14.25,4.81,18.92c0,0-1.61-7.65-2.75-13.64
	c-1.13-6-0.86-6.08-1.49-7.55C258.8,139.96,248.75,132.86,243.65,130.25z"/>
<path fill="#34C7FF" d="M241.24,185.98c0,0-6.48,28.28-6.19,30.2c0.29,1.91,4.49,5.81,4.69,6.88c0,0-3.21,4.38-3.06,5.35
	s5.62,7.1,5.47,9c-0.04,0.55-3.59,6.52-3.59,6.52s4.01-5.87,4.21-6.8c0.2-0.94-4.92-8.77-5.07-9.57c-0.39-2.06,2.55-3.58,2.65-4.94
	c0.1-1.36-3.98-4.67-4.01-6.88C236.31,213.52,241.24,185.98,241.24,185.98z"/>
<path fill="#34C7FF" d="M242.56,253.41c0,0,14.01,32.34,18.79,64.67C261.35,318.08,260.55,286.53,242.56,253.41z"/>
<path fill="#FFBCAF" d="M153.7,123.75c0,0-3.63-0.79-5.13-4.01c-1.5-3.22-0.52-7.89-0.52-7.89s2.84,5.55,4.25,7.45
	C153.72,121.19,154.1,123.35,153.7,123.75z"/>
<g>
	<path opacity="0.6" fill="#36D1F7" d="M265.59,106.89l2.51,73.05c0.1,2.9,2.43,5.19,5.28,5.19h123.46c2.87,0,5.21-2.33,5.28-5.25
		l1.73-73.9c0.07-3.04-2.33-5.53-5.31-5.51l-127.7,0.85C267.86,101.34,265.48,103.86,265.59,106.89z"/>
	<g>
		<path fill="#744CA2" d="M396.84,185.34H273.38c-2.96,0-5.37-2.37-5.47-5.39l-2.51-73.05c-0.05-1.52,0.49-2.96,1.52-4.06
			c1.03-1.1,2.42-1.71,3.92-1.72l127.7-0.85c1.48,0.01,2.89,0.58,3.94,1.67c1.05,1.09,1.6,2.52,1.57,4.05l-1.73,73.9
			C402.24,182.94,399.84,185.34,396.84,185.34z M398.57,100.67c-0.01,0-0.02,0-0.03,0l-127.7,0.85c-1.39,0.01-2.68,0.58-3.64,1.6
			c-0.96,1.02-1.46,2.36-1.41,3.77l2.51,73.05c0.1,2.81,2.33,5,5.08,5h123.46c2.74,0,5.02-2.27,5.08-5.06l1.73-73.9
			c0.03-1.41-0.48-2.75-1.46-3.76C401.23,101.22,399.94,100.67,398.57,100.67z"/>
	</g>
	<linearGradient id="SVGID_71_" gradientUnits="userSpaceOnUse" x1="265.6963" y1="105.5646" x2="403.9301" y2="105.5646">
		<stop  offset="0" style="stop-color:#9D68C2"/>
		<stop  offset="1" style="stop-color:#AEC2FF"/>
	</linearGradient>
	<path opacity="0.6" fill="url(#SVGID_71_)" d="M265.77,110.61H403.7l0.22-3.85c0.2-3.41-2.48-6.27-5.82-6.24l-127.65,1.03
		c-2.66,0.02-4.8,2.26-4.75,4.97L265.77,110.61z"/>
	<linearGradient id="SVGID_72_" gradientUnits="userSpaceOnUse" x1="293.8165" y1="158.7819" x2="293.8165" y2="116.2848">
		<stop  offset="0" style="stop-color:#CCEDFF"/>
		<stop  offset="1" style="stop-color:#9D68C2"/>
	</linearGradient>
	<polygon opacity="0.3" fill="url(#SVGID_72_)" points="272.71,116.51 272.71,158.78 314.93,158.78 314.93,116.28 	"/>
	<linearGradient id="SVGID_73_" gradientUnits="userSpaceOnUse" x1="364.9082" y1="138.0626" x2="364.9082" y2="119.3435">
		<stop  offset="0" style="stop-color:#CCEDFF"/>
		<stop  offset="1" style="stop-color:#9D68C2"/>
	</linearGradient>
	<rect x="355.73" y="119.34" opacity="0.3" fill="url(#SVGID_73_)" width="18.36" height="18.72"/>
	<linearGradient id="SVGID_74_" gradientUnits="userSpaceOnUse" x1="386.576" y1="138.0626" x2="386.576" y2="119.3435">
		<stop  offset="0" style="stop-color:#CCEDFF"/>
		<stop  offset="1" style="stop-color:#9D68C2"/>
	</linearGradient>
	<rect x="377.39" y="119.34" opacity="0.3" fill="url(#SVGID_74_)" width="18.36" height="18.72"/>
	<linearGradient id="SVGID_75_" gradientUnits="userSpaceOnUse" x1="342.8784" y1="138.0626" x2="342.8784" y2="119.3435">
		<stop  offset="0" style="stop-color:#CCEDFF"/>
		<stop  offset="1" style="stop-color:#9D68C2"/>
	</linearGradient>
	<rect x="333.7" y="119.34" opacity="0.3" fill="url(#SVGID_75_)" width="18.36" height="18.72"/>
	<rect x="348.8" y="148.98" fill="#D1D4FB" width="46.96" height="4.48"/>
	<rect x="337.05" y="155.8" fill="#D1D4FB" width="58.71" height="1.39"/>
	<rect x="337.6" y="140.45" fill="#D1D4FB" width="11.23" height="1.39"/>
	<rect x="359.29" y="140.45" fill="#D1D4FB" width="11.23" height="1.39"/>
	<rect x="380.96" y="140.45" fill="#D1D4FB" width="11.23" height="1.39"/>
	<rect x="333.7" y="158.06" fill="#D1D4FB" width="18.89" height="1.39"/>
	<rect x="337.05" y="160.28" fill="#D1D4FB" width="58.71" height="1.39"/>
	<rect x="333.7" y="162.51" fill="#D1D4FB" width="62.06" height="1.39"/>
	<rect x="333.7" y="164.74" fill="#D1D4FB" width="62.06" height="1.39"/>
	<rect x="337.05" y="173.75" fill="#D1D4FB" width="58.71" height="1.39"/>
	<rect x="333.7" y="175.98" fill="#D1D4FB" width="62.06" height="1.39"/>
	<rect x="333.7" y="178.21" fill="#D1D4FB" width="62.06" height="1.39"/>
	<rect x="333.7" y="166.97" fill="#D1D4FB" width="59.57" height="1.39"/>
	<rect x="337.05" y="169.2" fill="#D1D4FB" width="58.71" height="1.39"/>
	<rect x="333.7" y="171.43" fill="#D1D4FB" width="50.28" height="1.39"/>
	<g>
		<path fill="#E0FFFF" d="M284.54,150.3c-6.62,0-12.01-5.49-12.01-12.24s5.39-12.24,12.01-12.24c6.62,0,12.01,5.49,12.01,12.24
			S291.16,150.3,284.54,150.3z M284.54,126.62c-6.19,0-11.23,5.13-11.23,11.45c0,6.31,5.04,11.45,11.23,11.45
			c6.19,0,11.23-5.13,11.23-11.45C295.76,131.75,290.73,126.62,284.54,126.62z"/>
	</g>
	<ellipse fill="#FFFFFF" cx="284.54" cy="138.06" rx="6.53" ry="6.65"/>
	<g>
		<path fill="#E0FFFF" d="M314.93,128.53c-6.62,0-12.01-5.49-12.01-12.24c0-6.75,5.39-12.24,12.01-12.24
			c6.62,0,12.01,5.49,12.01,12.24C326.94,123.04,321.55,128.53,314.93,128.53z M314.93,104.84c-6.19,0-11.23,5.13-11.23,11.45
			c0,6.31,5.04,11.45,11.23,11.45c6.19,0,11.23-5.13,11.23-11.45C326.16,109.97,321.12,104.84,314.93,104.84z"/>
	</g>
	<ellipse fill="#FFFFFF" cx="314.93" cy="116.28" rx="6.14" ry="6.26"/>
	<g>
		<polygon fill="#FFFFFF" points="270.61,104.88 271.48,103.52 276.23,107.76 275.5,108.79 		"/>
		<polygon fill="#FFFFFF" points="276.35,104.88 275.47,103.52 270.73,107.76 271.46,108.79 		"/>
	</g>
	<rect x="357.86" y="104.44" fill="#FFFFFF" width="42.5" height="2.17"/>
</g>
<g>
	<linearGradient id="SVGID_76_" gradientUnits="userSpaceOnUse" x1="145.3651" y1="92.0689" x2="145.3651" y2="72.4749">
		<stop  offset="0" style="stop-color:#D93DE3"/>
		<stop  offset="1" style="stop-color:#FF6DBA"/>
	</linearGradient>
	<polygon fill="url(#SVGID_76_)" points="134.19,73.08 134.19,91.88 156.25,92.07 156.54,72.47 	"/>
	<linearGradient id="SVGID_77_" gradientUnits="userSpaceOnUse" x1="157.1149" y1="92.0689" x2="157.1149" y2="72.4749">
		<stop  offset="0" style="stop-color:#A242EA"/>
		<stop  offset="1" style="stop-color:#FE117E"/>
	</linearGradient>
	<polygon fill="url(#SVGID_77_)" points="156.54,72.47 157.98,74.94 157.26,92.05 156.25,92.07 	"/>
	<polygon fill="#FFFFFF" points="138.13,79.42 140.16,76.41 151.18,85.83 149.49,88.13 	"/>
	<polygon fill="#FFFFFF" points="151.46,79.42 149.42,76.41 138.41,85.83 140.1,88.13 	"/>
</g>
<g>
	<linearGradient id="SVGID_78_" gradientUnits="userSpaceOnUse" x1="141.941" y1="298.3933" x2="152.5133" y2="214.216">
		<stop  offset="0" style="stop-color:#067EFF"/>
		<stop  offset="1" style="stop-color:#3E37A0"/>
	</linearGradient>
	<path opacity="0.81" fill="url(#SVGID_78_)" d="M185.65,294.35h-75.49c-3.36,0-6.1-2.73-6.18-6.16l-1.41-63.11
		c-0.08-3.54,2.71-6.45,6.18-6.45h78.59c3.48,0,6.28,2.93,6.18,6.47l-1.7,63.11C191.74,291.64,189,294.35,185.65,294.35z"/>
	<g>
		<path fill="#473DA2" d="M185.65,294.55h-75.49c-3.44,0-6.3-2.85-6.38-6.35l-1.41-63.11c-0.04-1.76,0.61-3.43,1.82-4.69
			c1.21-1.26,2.83-1.96,4.56-1.96h78.59c1.74,0,3.36,0.7,4.57,1.97c1.21,1.27,1.85,2.94,1.8,4.71l-1.7,63.11
			C191.93,291.78,189.13,294.55,185.65,294.55z M108.75,218.84c-1.62,0-3.15,0.65-4.28,1.84c-1.14,1.19-1.74,2.75-1.7,4.41
			l1.41,63.11c0.07,3.29,2.76,5.96,5.99,5.96h75.49c3.27,0,5.9-2.61,5.98-5.94l1.7-63.11c0.04-1.66-0.56-3.23-1.69-4.42
			c-1.14-1.19-2.66-1.85-4.29-1.85H108.75z"/>
	</g>
	<g>
		<rect x="122.92" y="231.55" fill="#FFFFFF" width="39.7" height="1.73"/>
		<rect x="122.92" y="235.76" fill="#FFFFFF" width="19.85" height="1.73"/>
		<rect x="122.92" y="239.28" fill="#FFFFFF" width="19.85" height="1.73"/>
		<rect x="145" y="239.28" fill="#FFFFFF" width="15.79" height="1.73"/>
		<rect x="122.92" y="242.8" fill="#FFFFFF" width="32" height="1.73"/>
		<rect x="122.92" y="246.32" fill="#FFFFFF" width="11.39" height="1.73"/>
		<rect x="136.66" y="256.87" fill="#FFFFFF" width="19.7" height="1.73"/>
		<rect x="122.92" y="249.84" fill="#FFFFFF" width="35.7" height="1.73"/>
		<rect x="122.92" y="253.35" fill="#FFFFFF" width="27.47" height="1.73"/>
		<rect x="122.92" y="256.87" fill="#FFFFFF" width="12.92" height="1.73"/>
		<rect x="122.92" y="260.39" fill="#FFFFFF" width="19.85" height="1.73"/>
		<rect x="122.92" y="263.91" fill="#FFFFFF" width="5.7" height="1.73"/>
		<rect x="130.96" y="263.91" fill="#FFFFFF" width="20.66" height="1.73"/>
		<rect x="136.66" y="267.32" fill="#FFFFFF" width="19.7" height="1.73"/>
		<rect x="122.92" y="267.32" fill="#FFFFFF" width="12.92" height="1.73"/>
		<rect x="122.92" y="270.84" fill="#FFFFFF" width="19.85" height="1.73"/>
		<rect x="122.92" y="274.36" fill="#FFFFFF" width="5.7" height="1.73"/>
		<rect x="130.96" y="274.36" fill="#FFFFFF" width="20.66" height="1.73"/>
	</g>
</g>
<linearGradient id="SVGID_79_" gradientUnits="userSpaceOnUse" x1="384.7201" y1="89.9369" x2="384.7201" y2="82.8247">
	<stop  offset="0" style="stop-color:#459FFF"/>
	<stop  offset="1" style="stop-color:#A96DFF"/>
</linearGradient>
<path fill="url(#SVGID_79_)" d="M388.21,86.38c0,1.96-1.56,3.56-3.49,3.56c-1.93,0-3.49-1.59-3.49-3.56c0-1.96,1.56-3.56,3.49-3.56
	C386.65,82.82,388.21,84.42,388.21,86.38z"/>
<linearGradient id="SVGID_80_" gradientUnits="userSpaceOnUse" x1="56.8214" y1="173.2802" x2="56.8214" y2="164.4283">
	<stop  offset="0" style="stop-color:#459FFF"/>
	<stop  offset="1" style="stop-color:#A96DFF"/>
</linearGradient>
<path fill="url(#SVGID_80_)" d="M61.16,168.85c0,2.44-1.94,4.43-4.34,4.43c-2.4,0-4.34-1.98-4.34-4.43c0-2.44,1.94-4.43,4.34-4.43
	C59.22,164.43,61.16,166.41,61.16,168.85z"/>
<linearGradient id="SVGID_81_" gradientUnits="userSpaceOnUse" x1="394.9672" y1="89.9369" x2="394.9672" y2="82.8247">
	<stop  offset="0" style="stop-color:#B31A8F"/>
	<stop  offset="1" style="stop-color:#FE117E"/>
</linearGradient>
<ellipse fill="url(#SVGID_81_)" cx="394.97" cy="86.38" rx="3.49" ry="3.56"/>
<linearGradient id="SVGID_82_" gradientUnits="userSpaceOnUse" x1="169.9854" y1="113.3469" x2="169.9854" y2="108.3178">
	<stop  offset="0" style="stop-color:#B31A8F"/>
	<stop  offset="1" style="stop-color:#FE117E"/>
</linearGradient>
<ellipse fill="url(#SVGID_82_)" cx="169.99" cy="110.83" rx="2.47" ry="2.51"/>
<linearGradient id="SVGID_83_" gradientUnits="userSpaceOnUse" x1="335.2307" y1="224.3103" x2="335.2307" y2="219.2812">
	<stop  offset="0" style="stop-color:#8642A0"/>
	<stop  offset="1" style="stop-color:#6456C0"/>
</linearGradient>
<ellipse fill="url(#SVGID_83_)" cx="335.23" cy="221.8" rx="2.47" ry="2.51"/>
<linearGradient id="SVGID_84_" gradientUnits="userSpaceOnUse" x1="78.7462" y1="249.1147" x2="78.7462" y2="244.6188">
	<stop  offset="0" style="stop-color:#8642A0"/>
	<stop  offset="1" style="stop-color:#6456C0"/>
</linearGradient>
<ellipse fill="url(#SVGID_84_)" cx="78.75" cy="246.87" rx="2.21" ry="2.25"/>
<g>
	<linearGradient id="SVGID_85_" gradientUnits="userSpaceOnUse" x1="97.2531" y1="224.7943" x2="97.2531" y2="187.6605">
		<stop  offset="0" style="stop-color:#D906E3"/>
		<stop  offset="1" style="stop-color:#FF6DF9"/>
	</linearGradient>
	<path opacity="0.73" fill="url(#SVGID_85_)" d="M116.34,224.79h-38.1c-3.07,0-5.58-2.48-5.68-5.6l-0.85-25.54
		c-0.11-3.28,2.47-5.99,5.68-5.99h39.71c3.21,0,5.78,2.7,5.68,5.97l-0.77,25.54C121.93,222.31,119.42,224.79,116.34,224.79z"/>
	<g>
		<path fill="#953DA2" d="M116.34,224.99h-38.1c-3.19,0-5.77-2.54-5.88-5.79l-0.85-25.54c-0.05-1.64,0.53-3.19,1.65-4.37
			c1.12-1.18,2.62-1.83,4.23-1.83h39.71c1.6,0,3.1,0.65,4.22,1.82c1.12,1.17,1.71,2.72,1.66,4.36l-0.77,25.54
			C122.12,222.44,119.54,224.99,116.34,224.99z M77.4,187.86c-1.5,0-2.9,0.61-3.95,1.71c-1.04,1.1-1.59,2.55-1.54,4.08l0.85,25.54
			c0.1,3.03,2.51,5.41,5.49,5.41h38.1c2.99,0,5.4-2.38,5.49-5.43l0.77-25.54c0.05-1.53-0.5-2.97-1.55-4.07
			c-1.04-1.1-2.44-1.7-3.94-1.7H77.4z"/>
	</g>
	<g>
		<polygon fill="#FFFFFF" points="88.4,196.84 79.01,207.94 88.57,216.21 88.57,211.94 83.04,207.06 88.18,201.13 		"/>
	</g>
	<g>
		<polygon fill="#FFFFFF" points="104.91,197.34 114.31,208.43 104.74,216.71 104.74,212.44 110.27,207.56 104.12,200.91 		"/>
	</g>
	<g>
		<polygon fill="#FFFFFF" points="90.45,216.21 98.63,197.83 102.48,197.83 93.21,216.21 		"/>
	</g>
</g>
<g>
	<linearGradient id="SVGID_86_" gradientUnits="userSpaceOnUse" x1="348.7951" y1="277.3564" x2="348.7951" y2="230.9027">
		<stop  offset="0" style="stop-color:#D906E3"/>
		<stop  offset="1" style="stop-color:#FF6DF9"/>
	</linearGradient>
	<path opacity="0.73" fill="url(#SVGID_86_)" d="M372.68,277.36h-47.66c-3.84,0-6.98-3.1-7.11-7.01l-1.06-31.95
		c-0.14-4.1,3.09-7.5,7.11-7.5h49.68c4.01,0,7.23,3.38,7.11,7.47l-0.96,31.95C379.67,274.24,376.52,277.36,372.68,277.36z"/>
	<g>
		<path fill="#953DA2" d="M372.68,277.56h-47.66c-3.96,0-7.17-3.16-7.3-7.2l-1.06-31.95c-0.07-2.04,0.66-3.96,2.05-5.43
			c1.39-1.46,3.26-2.27,5.25-2.27h49.68c1.99,0,3.86,0.8,5.25,2.26c1.39,1.46,2.12,3.38,2.06,5.42l-0.96,31.95
			C379.86,274.38,376.65,277.56,372.68,277.56z M323.96,231.1c-1.89,0-3.66,0.76-4.97,2.15c-1.32,1.39-2,3.21-1.94,5.14l1.06,31.95
			c0.13,3.82,3.16,6.81,6.91,6.81h47.66c3.76,0,6.8-3,6.92-6.84l0.96-31.95c0.06-1.92-0.64-3.74-1.95-5.13
			c-1.31-1.38-3.08-2.14-4.97-2.14H323.96z"/>
	</g>
	<rect x="326.4" y="236.05" fill="#D1D4FB" width="43.65" height="26.42"/>
	<polygon fill="#FFFFFF" points="344.36,242.6 344.36,255.91 355.51,248.65 	"/>
	<rect x="326.4" y="267.34" fill="#D1D4FB" width="43.65" height="2.42"/>
	<rect x="326.4" y="267.34" fill="#FFFFFF" width="11.3" height="2.42"/>
</g>
<g>
	<g>
		
			<linearGradient id="SVGID_87_" gradientUnits="userSpaceOnUse" x1="304.3078" y1="216.0677" x2="300.3519" y2="182.1143" gradientTransform="matrix(0.9656 0.26 -0.26 0.9656 51.9533 -36.385)">
			<stop  offset="0" style="stop-color:#1852A0"/>
			<stop  offset="1" style="stop-color:#067ED3"/>
		</linearGradient>
		<path fill-rule="evenodd" clip-rule="evenodd" fill="url(#SVGID_87_)" d="M294.42,227.69l-2.28,6.64
			C293.4,230.67,295.21,228.28,294.42,227.69z M292.14,234.34l-2.28,6.64C290.43,240.81,290.88,238.01,292.14,234.34z
			 M294.42,227.69l-2.28,6.64C293.4,230.67,295.21,228.28,294.42,227.69z M292.14,234.34l-2.28,6.64
			C290.43,240.81,290.88,238.01,292.14,234.34z M298.72,240.09l2.21,1.28l2.39-6.65l-2.56-0.44c0.05-0.25,0.09-0.49,0.12-0.74
			c0.18-1.14,0.25-2.25,0.22-3.31l2.68-1.71l-1.22-5.85l-2.57,2.5c-0.36-0.75-0.8-1.4-1.31-1.95c-0.14-0.16-0.29-0.31-0.44-0.44
			l1.57-3.69l-4.18-1.39l0,0l-1,3.72c-0.93,0-1.88,0.24-2.83,0.67l-0.46-3.52l-4.6,3.55l1.06,3.12c-0.83,0.96-1.59,2.08-2.24,3.33
			l-2.21-1.27l-2.39,6.65l2.56,0.44c-0.27,1.4-0.38,2.76-0.34,4.05l-2.68,1.71l1.22,5.85l2.57-2.5c0.46,0.96,1.05,1.76,1.76,2.38
			l-1.57,3.7l4.11,1.63l0.64-2.36l0.43-1.61c0.93,0,1.89-0.24,2.83-0.67l0.45,3.52l4.6-3.55l-1.06-3.12
			c0.65-0.76,1.26-1.61,1.81-2.55C298.43,240.62,298.58,240.36,298.72,240.09z M292.14,234.34c-1.26,3.67,0,7.46-2.28,6.64
			c-2.29-0.82-3.12-4.45-1.86-8.12c1.26-3.67,4.14-5.98,6.42-5.17C296.71,228.51,293.4,230.67,292.14,234.34z M294.42,227.69
			l-2.28,6.64C293.4,230.67,295.21,228.28,294.42,227.69z M292.14,234.34l-2.28,6.64C290.43,240.81,290.88,238.01,292.14,234.34z"/>
	</g>
	
		<linearGradient id="SVGID_88_" gradientUnits="userSpaceOnUse" x1="300.4731" y1="216.1885" x2="300.4731" y2="181.3831" gradientTransform="matrix(0.9656 0.26 -0.26 0.9656 51.9533 -36.385)">
		<stop  offset="0" style="stop-color:#1852A0"/>
		<stop  offset="1" style="stop-color:#067ED3"/>
	</linearGradient>
	<path fill-rule="evenodd" clip-rule="evenodd" fill="url(#SVGID_88_)" d="M300.93,241.37l2.39-6.65l-2.44-1.17l-0.39-0.19
		l0.26-3.66l2.7-1.35l-0.89-5.68l-5.89-1.96l1.09,2.64l2.05-4.26l-4.18-1.39l-1.72-0.57l-4.12-1.63l-0.77,2.86l-3.58-1.73l-4.6,3.55
		l1.39,3.83l-4.3,12.15l-2.12,7.89l4.08,0.46l-1.33,3.13l4.12,1.64l5.89,1.96l-0.95-1.93l-0.6-1.15l2.18,0.72l3.72,1.23l4.6-3.55
		l-2.84-3.41l3.59-2.25L300.93,241.37z M288,232.86c1.26-3.67,4.14-5.98,6.42-5.17l-2.28,6.64l-2.28,6.64
		C287.57,240.16,286.74,236.52,288,232.86z"/>
	<g>
		
			<linearGradient id="SVGID_89_" gradientUnits="userSpaceOnUse" x1="262.4466" y1="240.0415" x2="259.8879" y2="218.0802" gradientTransform="matrix(0.9438 0.3306 -0.5202 1.4851 158.9139 -194.1408)">
			<stop  offset="0" style="stop-color:#188DC1"/>
			<stop  offset="1" style="stop-color:#06BFE7"/>
		</linearGradient>
		<path fill-rule="evenodd" clip-rule="evenodd" fill="url(#SVGID_89_)" d="M295.04,239.41l2.39-6.65l-2.56-0.44
			c0.27-1.4,0.38-2.76,0.34-4.05l2.68-1.71l-1.22-5.86l-2.57,2.5c-0.46-0.96-1.04-1.77-1.76-2.39l1.57-3.69l-4.11-1.63l-1.07,3.97
			c-0.93,0-1.89,0.24-2.83,0.67l-0.46-3.51l-4.6,3.54l1.06,3.12c-0.83,0.96-1.58,2.08-2.24,3.33l-2.22-1.27l-2.39,6.65l2.56,0.44
			c-0.27,1.4-0.38,2.76-0.34,4.04l-2.68,1.71l1.22,5.86l2.57-2.5c0.46,0.96,1.04,1.77,1.76,2.39l-1.57,3.69l4.11,1.63l1.07-3.97
			c0.93,0,1.89-0.24,2.83-0.67l0.46,3.51l4.6-3.54l-1.06-3.12c0.83-0.96,1.58-2.08,2.24-3.33L295.04,239.41z M283.96,239.02
			c-2.29-0.82-3.12-4.45-1.86-8.12c1.26-3.67,4.14-5.98,6.42-5.16c2.29,0.82,3.12,4.45,1.86,8.12
			C289.13,237.53,286.25,239.84,283.96,239.02z"/>
	</g>
	<polygon opacity="0.5" fill-rule="evenodd" clip-rule="evenodd" fill="#601734" points="303.78,228.53 297.89,226.57 
		295.21,228.28 301.1,230.24 	"/>
	<polygon fill-rule="evenodd" clip-rule="evenodd" fill="#B3D9FF" points="297.54,246.55 291.64,244.59 290.58,241.47 
		296.47,243.43 	"/>
	<polygon opacity="0.5" fill-rule="evenodd" clip-rule="evenodd" fill="#601734" points="292.34,220.83 295.57,221.78 
		296.66,220.72 298.81,221.43 299.8,219.09 293.91,217.13 	"/>
	<path opacity="0.5" fill-rule="evenodd" clip-rule="evenodd" fill="#601734" d="M283.76,245.29l3.09,1.31l-0.26-1.98
		C286.59,244.62,284.93,245.51,283.76,245.29z"/>
	<path opacity="0.5" fill-rule="evenodd" clip-rule="evenodd" fill="#601734" d="M284.24,227.29l5.2,2.8c0,0,0.75-1.03,1.34-1.44
		C290.77,228.64,289.41,222.81,284.24,227.29z"/>
</g>
<polygon fill="#FF1D9C" points="164.98,29.18 169.99,39.41 166.64,40.96 161.96,31.57 "/>
<polygon fill="#6877FF" points="52.2,267.4 56.84,272.58 58.66,270.44 54.28,265.53 "/>
<polygon fill="#4F31E0" points="287.81,91.58 283.14,94.46 281.27,90.85 286.37,87.81 "/>
<polygon fill="#4F31E0" points="310.79,274.38 304.1,279.22 302.23,275.61 308.73,271.74 "/>
<g>
	<linearGradient id="SVGID_90_" gradientUnits="userSpaceOnUse" x1="312.9094" y1="69.7998" x2="321.8835" y2="36.4715">
		<stop  offset="0" style="stop-color:#188DC1"/>
		<stop  offset="1" style="stop-color:#06BFE7"/>
	</linearGradient>
	<polygon fill-rule="evenodd" clip-rule="evenodd" fill="url(#SVGID_90_)" points="301.95,66.85 300.82,40.07 335.23,40.07 
		333.82,66.77 	"/>
	<linearGradient id="SVGID_91_" gradientUnits="userSpaceOnUse" x1="297.7067" y1="66.0106" x2="304.4313" y2="41.0368">
		<stop  offset="0" style="stop-color:#1852A0"/>
		<stop  offset="1" style="stop-color:#067ED3"/>
	</linearGradient>
	<polygon fill-rule="evenodd" clip-rule="evenodd" fill="url(#SVGID_91_)" points="300.82,40.07 299.79,41.65 300.82,66.85 
		301.95,66.85 	"/>
	<polygon fill="#FFFFFF" points="312.25,45.41 306.85,44.82 307.59,63.18 312.25,62.71 312.25,60.81 309.55,60.88 309.24,46.72 
		312.25,46.81 	"/>
	<polygon fill="#FFFFFF" points="323.31,45.41 328.7,44.82 327.97,63.18 323.31,62.71 323.31,60.81 326.01,60.88 326.31,46.72 
		323.31,46.81 	"/>
</g>
<g>
	
		<linearGradient id="SVGID_92_" gradientUnits="userSpaceOnUse" x1="-0.5805" y1="127.4972" x2="5.5373" y2="104.7766" gradientTransform="matrix(-1 0 0 1 56.6559 0)">
		<stop  offset="0" style="stop-color:#188DC1"/>
		<stop  offset="1" style="stop-color:#06BFE7"/>
	</linearGradient>
	<polygon fill-rule="evenodd" clip-rule="evenodd" fill="url(#SVGID_92_)" points="64.7,125.49 65.48,107.23 42.02,107.23 
		42.98,125.43 	"/>
	
		<linearGradient id="SVGID_93_" gradientUnits="userSpaceOnUse" x1="-10.9446" y1="124.914" x2="-6.3603" y2="107.8888" gradientTransform="matrix(-1 0 0 1 56.6559 0)">
		<stop  offset="0" style="stop-color:#1852A0"/>
		<stop  offset="1" style="stop-color:#067ED3"/>
	</linearGradient>
	<polygon fill-rule="evenodd" clip-rule="evenodd" fill="url(#SVGID_93_)" points="65.48,107.23 66.18,108.3 65.48,125.49 
		64.7,125.49 	"/>
	<path fill="#FFFFFF" d="M56.44,110.9c0,0,2.57-0.1,3.03,0.11c0.45,0.21-0.12,4.48-0.12,4.48l1.03,0.96l-0.96,0.95
		c0,0,0.05,4.33-0.55,4.69c-0.61,0.36-2.67,0-2.67,0v-1.08c0,0,1.69,0.11,1.97-0.12c0.28-0.23,0.25-4.01,0.25-4.01l0.45-0.51
		l-0.45-0.55c0,0,0.08-2.7,0.03-3.44c-0.03-0.49-2-0.52-2-0.52V110.9z"/>
	<path fill="#FFFFFF" d="M50.55,110.9c0,0-2.57-0.1-3.03,0.11c-0.45,0.21,0.12,4.48,0.12,4.48l-1.03,0.96l0.96,0.95
		c0,0-0.05,4.33,0.55,4.69c0.61,0.36,2.67,0,2.67,0v-1.08c0,0-1.69,0.11-1.97-0.12c-0.28-0.23-0.25-4.01-0.25-4.01l-0.45-0.51
		l0.45-0.55c0,0-0.08-2.7-0.03-3.44c0.03-0.49,2-0.52,2-0.52V110.9z"/>
</g>
<g>
	<g>
		<path fill="#744CA2" d="M262.62,69.26l-5.75-15.33l14.91,3.17L262.62,69.26z M257.49,54.47l5.24,13.99l8.35-11.09L257.49,54.47z"
			/>
	</g>
	<g>
		<polygon fill="#744CA2" points="303.82,286.66 303.5,286.43 308.56,279.41 308.87,279.65 		"/>
	</g>
	<g>
		<polygon fill="#744CA2" points="256.42,221.92 251,215.04 251.3,214.79 256.73,221.67 		"/>
	</g>
	<g>
		<polygon fill="#744CA2" points="89.09,270.24 78.26,262.24 78.49,261.91 89.32,269.92 		"/>
	</g>
	<g>
		<polygon fill="#744CA2" points="79.89,271.62 79.58,271.38 87.69,260.54 88,260.78 		"/>
	</g>
	<g>
		<polygon fill="#744CA2" points="71.62,152.85 64.61,149.1 64.8,148.75 71.8,152.5 		"/>
	</g>
	<g>
		<polygon fill="#744CA2" points="340.84,56.56 340.55,56.3 348.65,46.89 348.94,47.15 		"/>
	</g>
	<g>
		<polygon fill="#744CA2" points="186.83,86.92 183.21,79.51 183.56,79.33 187.18,86.75 		"/>
	</g>
	<g>
		<polygon fill="#744CA2" points="126.18,212.37 125.93,212.07 135.24,204.13 135.49,204.44 		"/>
	</g>
</g>
<rect x="-8.96" y="-0.23" fill="none" width="468.43" height="318.32"/>
</svg>
